<svg id="Layer_1" data-name="Layer 1" xmlns="http://www.w3.org/2000/svg" viewBox="0 0 603.21 329.01"><defs><style>.cls-1{fill:#f7ae2d;}.cls-2{fill:#b06702;}.cls-3{fill:#f7ebd7;}</style></defs><title>Infographics_17</title><rect class="cls-1" x="19.79" y="230.01" width="156.42" height="99"/><polygon class="cls-1" points="196 230.01 0 230.01 20 188.04 176 188.04 196 230.01"/><rect class="cls-1" x="52.31" y="170.41" width="24.08" height="19.15"/><rect class="cls-1" x="123.02" y="170.41" width="24.08" height="19.15"/><polygon class="cls-2" points="162.1 263.22 162.1 245.78 30.11 245.78 30.11 293.99 162.1 293.99 162.1 276.55 168.77 276.55 168.77 263.22 162.1 263.22"/><path class="cls-3" d="M3920.54,2166.1h-16.15v-3.4h16.15v3.4Z" transform="translate(-3861.04 -1895.53)"/><path class="cls-3" d="M4006.44,2163h5.36v3.75h-5.36v6.17h-4.11v-6.17h-5.39V2163h5.39v-5.87h4.11V2163Z" transform="translate(-3861.04 -1895.53)"/><rect class="cls-1" x="427" y="180.36" width="156.42" height="148.65"/><polygon class="cls-1" points="603.21 186.82 407.21 186.82 505.21 106.45 603.21 186.82"/><polygon class="cls-2" points="569.31 263.22 569.31 245.78 437.31 245.78 437.31 293.99 569.31 293.99 569.31 276.55 575.98 276.55 575.98 263.22 569.31 263.22"/><path class="cls-3" d="M4327.75,2166.1H4311.6v-3.4h16.15v3.4Z" transform="translate(-3861.04 -1895.53)"/><path class="cls-3" d="M4413.65,2163H4419v3.75h-5.36v6.17h-4.11v-6.17h-5.39V2163h5.39v-5.87h4.11V2163Z" transform="translate(-3861.04 -1895.53)"/><rect class="cls-1" x="217" y="12.47" width="174" height="316.54"/><polygon class="cls-2" points="367.11 263.22 367.11 245.78 235.1 245.78 235.1 293.99 367.11 293.99 367.11 276.55 373.77 276.55 373.77 263.22 367.11 263.22"/><path class="cls-3" d="M4125.54,2166.1h-16.15v-3.4h16.15v3.4Z" transform="translate(-3861.04 -1895.53)"/><path class="cls-3" d="M4211.44,2163h5.36v3.75h-5.36v6.17h-4.11v-6.17h-5.39V2163h5.39v-5.87h4.11V2163Z" transform="translate(-3861.04 -1895.53)"/><polygon class="cls-2" points="367.11 195.89 367.11 178.46 235.1 178.46 235.1 226.66 367.11 226.66 367.11 209.23 373.77 209.23 373.77 195.89 367.11 195.89"/><path class="cls-3" d="M4125.54,2098.77h-16.15v-3.4h16.15v3.4Z" transform="translate(-3861.04 -1895.53)"/><path class="cls-3" d="M4211.44,2095.63h5.36v3.75h-5.36v6.17h-4.11v-6.17h-5.39v-3.75h5.39v-5.87h4.11v5.87Z" transform="translate(-3861.04 -1895.53)"/><polygon class="cls-2" points="569.31 195.89 569.31 178.46 437.31 178.46 437.31 226.66 569.31 226.66 569.31 209.23 575.98 209.23 575.98 195.89 569.31 195.89"/><path class="cls-3" d="M4327.75,2098.77H4311.6v-3.4h16.15v3.4Z" transform="translate(-3861.04 -1895.53)"/><path class="cls-3" d="M4413.65,2095.63H4419v3.75h-5.36v6.17h-4.11v-6.17h-5.39v-3.75h5.39v-5.87h4.11v5.87Z" transform="translate(-3861.04 -1895.53)"/><polygon class="cls-2" points="367.11 128.57 367.11 111.13 235.1 111.13 235.1 159.34 367.11 159.34 367.11 141.9 373.77 141.9 373.77 128.57 367.11 128.57"/><path class="cls-3" d="M4125.54,2031.44h-16.15V2028h16.15v3.4Z" transform="translate(-3861.04 -1895.53)"/><path class="cls-3" d="M4211.44,2028.3h5.36v3.75h-5.36v6.17h-4.11v-6.17h-5.39v-3.75h5.39v-5.87h4.11v5.87Z" transform="translate(-3861.04 -1895.53)"/><polygon class="cls-2" points="367.11 61.24 367.11 43.8 235.1 43.8 235.1 92.01 367.11 92.01 367.11 74.57 373.77 74.57 373.77 61.24 367.11 61.24"/><path class="cls-3" d="M4125.54,1964.12h-16.15v-3.4h16.15v3.4Z" transform="translate(-3861.04 -1895.53)"/><path class="cls-3" d="M4211.44,1961h5.36v3.75h-5.36v6.17h-4.11v-6.17h-5.39V1961h5.39v-5.87h4.11V1961Z" transform="translate(-3861.04 -1895.53)"/><rect class="cls-1" x="253.59" width="98.83" height="19.5"/><rect class="cls-1" x="427" y="126.13" width="26.67" height="50.67"/></svg>