<svg id="Layer_1" data-name="Layer 1" xmlns="http://www.w3.org/2000/svg" viewBox="0 0 525.39 169.41"><defs><style>.cls-1{fill:#f1f2f2;}.cls-2{fill:none;stroke:#de920d;stroke-linecap:round;stroke-linejoin:round;stroke-width:3.62px;}.cls-3{fill:#f7ae2d;}.cls-4{fill:#b06702;}.cls-5{fill:#de920d;}.cls-6{fill:#f7ca7b;}</style></defs><title>Infographics_17</title><path class="cls-1" d="M3416.49,1729.33c5.16,0,10-1.21,12.23-3.62,4.4-4.83,5.12-19.87,7.49-39.86s14.44-24.45,14.35-45.46c-0.08-19-11.37-38.4-34.16-38.4s-34.08,19.42-34.16,38.4c-0.09,21,12,25.47,14.35,45.46s3.1,35,7.49,39.86C3406.29,1728.12,3411.33,1729.33,3416.49,1729.33Z" transform="translate(-3378.01 -1601.98)"/><path class="cls-2" d="M3412.34,1691.06s2.1-53.59-6.76-50.36c-6.44,2.35.08,11.08,10.9,11.08s17.05-8.68,10.85-11.24c-9-3.73-7.33,50.52-7.33,50.52" transform="translate(-3378.01 -1601.98)"/><path class="cls-3" d="M3436.22,1685.85H3396.6c2.37,20,3.1,35,7.49,39.86,1.27,1.4,3.51,2.38,6.16,3a6.26,6.26,0,0,0,12.31,0,11.81,11.81,0,0,0,6.16-3C3433.12,1720.88,3433.85,1705.84,3436.22,1685.85Z" transform="translate(-3378.01 -1601.98)"/><path class="cls-4" d="M3379.78,1771.28H3378v-7.65h1.77v7.65Z" transform="translate(-3378.01 -1601.98)"/><path class="cls-4" d="M3387.49,1771.28h-1.77l-2.8-4.81h0v4.8h-1.78v-7.65h1.78l2.8,4.81h0v-4.8h1.77v7.65Z" transform="translate(-3378.01 -1601.98)"/><path class="cls-4" d="M3394.58,1768.7v0a2.46,2.46,0,0,1-.74,2,3.13,3.13,0,0,1-2.15.68,3,3,0,0,1-3.14-3.14v-1.6a3.15,3.15,0,0,1,.83-2.27,2.88,2.88,0,0,1,2.19-.87,3.38,3.38,0,0,1,2.25.68,2.39,2.39,0,0,1,.78,2l0,0h-1.73a1.4,1.4,0,0,0-.3-1,1.34,1.34,0,0,0-1-.3,1,1,0,0,0-.92.48,2.27,2.27,0,0,0-.32,1.28v1.61a2.15,2.15,0,0,0,.35,1.29,1.17,1.17,0,0,0,1,.48,1.12,1.12,0,0,0,.88-0.3,1.53,1.53,0,0,0,.27-1h1.73Z" transform="translate(-3378.01 -1601.98)"/><path class="cls-4" d="M3399.58,1769.79h-2.28l-0.44,1.49H3395l2.5-7.65h1.91l2.5,7.65H3400Zm-1.87-1.37h1.46l-0.71-2.37h0Z" transform="translate(-3378.01 -1601.98)"/><path class="cls-4" d="M3408.82,1771.28h-1.77l-2.8-4.81h0v4.8h-1.78v-7.65h1.78l2.8,4.81h0v-4.8h1.77v7.65Z" transform="translate(-3378.01 -1601.98)"/><path class="cls-4" d="M3410,1771.28v-7.65h2.8a3.12,3.12,0,0,1,2.26.88,3,3,0,0,1,.91,2.26v1.38a3,3,0,0,1-.91,2.26,3.12,3.12,0,0,1-2.26.88H3410Zm1.78-6.29v4.92h1a1.22,1.22,0,0,0,1-.49,2,2,0,0,0,.39-1.28v-1.39a2,2,0,0,0-.39-1.27,1.22,1.22,0,0,0-1-.49h-1Z" transform="translate(-3378.01 -1601.98)"/><path class="cls-4" d="M3421.55,1768h-2.7v1.91h3.23v1.37h-5v-7.65h5V1765h-3.24v1.65h2.7V1768Z" transform="translate(-3378.01 -1601.98)"/><path class="cls-4" d="M3427,1769.25a0.76,0.76,0,0,0-.27-0.63,3.49,3.49,0,0,0-1-.46,7.37,7.37,0,0,1-2.12-1,1.77,1.77,0,0,1-.69-1.51,1.85,1.85,0,0,1,.8-1.56,3.88,3.88,0,0,1,4.15,0,2,2,0,0,1,.77,1.73v0H3427a1,1,0,0,0-.29-0.79,1.37,1.37,0,0,0-.89-0.24,1.14,1.14,0,0,0-.76.24,0.74,0.74,0,0,0-.28.58,0.63,0.63,0,0,0,.29.54,5.57,5.57,0,0,0,1.07.51,5.68,5.68,0,0,1,2,1,1.91,1.91,0,0,1,.68,1.55,1.84,1.84,0,0,1-.79,1.58,3.49,3.49,0,0,1-2.09.57,3.82,3.82,0,0,1-2.2-.61,2.11,2.11,0,0,1-.87-1.93v0h1.73a1.19,1.19,0,0,0,.33.95,1.52,1.52,0,0,0,1,.28,1.3,1.3,0,0,0,.83-0.22A0.71,0.71,0,0,0,3427,1769.25Z" transform="translate(-3378.01 -1601.98)"/><path class="cls-4" d="M3435.65,1768.7v0a2.46,2.46,0,0,1-.74,2,3.13,3.13,0,0,1-2.15.68,3,3,0,0,1-3.14-3.14v-1.6a3.15,3.15,0,0,1,.83-2.27,2.88,2.88,0,0,1,2.19-.87,3.38,3.38,0,0,1,2.25.68,2.39,2.39,0,0,1,.78,2l0,0h-1.73a1.4,1.4,0,0,0-.3-1,1.34,1.34,0,0,0-1-.3,1,1,0,0,0-.92.48,2.27,2.27,0,0,0-.32,1.28v1.61a2.15,2.15,0,0,0,.35,1.29,1.17,1.17,0,0,0,1,.48,1.12,1.12,0,0,0,.88-0.3,1.53,1.53,0,0,0,.27-1h1.73Z" transform="translate(-3378.01 -1601.98)"/><path class="cls-4" d="M3441.11,1768h-2.7v1.91h3.23v1.37h-5v-7.65h5V1765h-3.24v1.65h2.7V1768Z" transform="translate(-3378.01 -1601.98)"/><path class="cls-4" d="M3449,1771.28h-1.77l-2.8-4.81h0v4.8h-1.78v-7.65h1.78l2.8,4.81h0v-4.8H3449v7.65Z" transform="translate(-3378.01 -1601.98)"/><path class="cls-4" d="M3455.42,1765h-2v6.29h-1.78V1765h-2v-1.37h5.79V1765Z" transform="translate(-3378.01 -1601.98)"/><path class="cls-4" d="M3638.42,1768.7v0a2.46,2.46,0,0,1-.74,2,3.13,3.13,0,0,1-2.15.68,3,3,0,0,1-3.14-3.14v-1.6a3.15,3.15,0,0,1,.83-2.27,2.88,2.88,0,0,1,2.19-.87,3.38,3.38,0,0,1,2.25.68,2.39,2.39,0,0,1,.78,2l0,0h-1.73a1.4,1.4,0,0,0-.3-1,1.34,1.34,0,0,0-1-.3,1,1,0,0,0-.92.48,2.27,2.27,0,0,0-.32,1.28v1.61a2.15,2.15,0,0,0,.35,1.29,1.17,1.17,0,0,0,1,.48,1.12,1.12,0,0,0,.88-0.3,1.53,1.53,0,0,0,.27-1h1.73Z" transform="translate(-3378.01 -1601.98)"/><path class="cls-4" d="M3644,1768.2h-2.8v3.08h-1.78v-7.65h5.11V1765h-3.34v1.84h2.8v1.37Z" transform="translate(-3378.01 -1601.98)"/><path class="cls-4" d="M3647.19,1769.91h3.28v1.37h-5.06v-7.65h1.78v6.29Z" transform="translate(-3378.01 -1601.98)"/><path class="cls-1" d="M3869.32,1729.33c5.16,0,10-1.21,12.23-3.62,4.4-4.83,5.12-19.87,7.49-39.86s14.44-24.45,14.35-45.46c-0.08-19-11.37-38.4-34.16-38.4s-34.08,19.42-34.16,38.4c-0.09,21,12,25.47,14.35,45.46s3.1,35,7.49,39.86C3859.11,1728.12,3864.16,1729.33,3869.32,1729.33Z" transform="translate(-3378.01 -1601.98)"/><path class="cls-4" d="M3869.32,1729.33c5.16,0,10-1.21,12.23-3.62,4.4-4.83,5.12-19.87,7.49-39.86s14.44-24.45,14.35-45.46h-68.33c-0.09,21,12,25.47,14.35,45.46s3.1,35,7.49,39.86C3859.11,1728.12,3864.16,1729.33,3869.32,1729.33Z" transform="translate(-3378.01 -1601.98)"/><path class="cls-4" d="M3862.09,1769.91h3.28v1.37h-5.06v-7.65h1.78v6.29Z" transform="translate(-3378.01 -1601.98)"/><path class="cls-4" d="M3870.8,1768h-2.7v1.91h3.23v1.37h-5v-7.65h5V1765h-3.24v1.65h2.7V1768Z" transform="translate(-3378.01 -1601.98)"/><path class="cls-4" d="M3872.34,1771.28v-7.65h2.8a3.12,3.12,0,0,1,2.26.88,3,3,0,0,1,.91,2.26v1.38a3,3,0,0,1-.91,2.26,3.12,3.12,0,0,1-2.26.88h-2.8Zm1.78-6.29v4.92h1a1.22,1.22,0,0,0,1-.49,2,2,0,0,0,.39-1.28v-1.39a2,2,0,0,0-.39-1.27,1.22,1.22,0,0,0-1-.49h-1Z" transform="translate(-3378.01 -1601.98)"/><path class="cls-3" d="M3850.44,1694.91c1.67,15.41,2.77,26.72,6.47,30.79,1.27,1.4,3.51,2.38,6.16,3a6.26,6.26,0,0,0,12.31,0,11.81,11.81,0,0,0,6.16-3c3.7-4.07,4.8-15.37,6.47-30.77Z" transform="translate(-3378.01 -1601.98)"/><polygon class="cls-5" points="466.37 38.4 477.7 92.93 483.03 92.93 473.03 38.4 466.37 38.4"/><polygon class="cls-5" points="516.08 38.4 504.75 92.93 499.42 92.93 509.42 38.4 516.08 38.4"/><rect class="cls-5" x="487.8" y="38.4" width="6.86" height="54.53"/><path class="cls-1" d="M238.81,55h49.11a5.44,5.44,0,0,1,5.44,5.44v0.11A5.45,5.45,0,0,1,287.92,66H238.81a5.44,5.44,0,0,1-5.44-5.44V60.46A5.44,5.44,0,0,1,238.81,55Z"/><path class="cls-1" d="M238.81,42.06h49.11a5.44,5.44,0,0,1,5.44,5.44v0.11a5.45,5.45,0,0,1-5.45,5.45H238.81a5.44,5.44,0,0,1-5.44-5.44V47.51a5.44,5.44,0,0,1,5.44-5.44Z"/><path class="cls-1" d="M238.81,29.11h49.11a5.44,5.44,0,0,1,5.44,5.44v0.11a5.44,5.44,0,0,1-5.44,5.44H238.81a5.44,5.44,0,0,1-5.44-5.44V34.55a5.45,5.45,0,0,1,5.45-5.45Z"/><path class="cls-1" d="M238.81,16.15h23.78A5.44,5.44,0,0,1,268,21.6v0.11a5.44,5.44,0,0,1-5.44,5.44H238.81a5.45,5.45,0,0,1-5.45-5.45V21.6a5.44,5.44,0,0,1,5.44-5.44Z"/><path class="cls-1" d="M3665.93,1670h-25.44a5.45,5.45,0,0,0-5.45,5.45v25.44a5.45,5.45,0,0,0,5.45,5.44h0.11a5.44,5.44,0,0,0,5.44-5.44V1681h19.89a5.45,5.45,0,0,0,5.44-5.44v-0.11A5.45,5.45,0,0,0,3665.93,1670Z" transform="translate(-3378.01 -1601.98)"/><path class="cls-3" d="M3624.43,1710.61c1,7.3,2.34,12.58,4.63,15.1,1.27,1.4,3.51,2.38,6.16,3a6.26,6.26,0,0,0,12.31,0,11.81,11.81,0,0,0,6.16-3c2.3-2.53,3.6-7.87,4.65-15.25Z" transform="translate(-3378.01 -1601.98)"/><path class="cls-6" d="M3658.34,1710.6h-34a5.33,5.33,0,0,1-5.33-5.33v-14.34h44.67v14.3A5.37,5.37,0,0,1,3658.34,1710.6Z" transform="translate(-3378.01 -1601.98)"/><polygon class="cls-4" points="172.5 65.67 152.7 55.87 152.7 62.84 127.7 62.84 127.7 68.5 152.7 68.5 152.7 75.47 172.5 65.67"/><polygon class="cls-4" points="399.35 65.67 379.55 55.87 379.55 62.84 354.55 62.84 354.55 68.5 379.55 68.5 379.55 75.47 399.35 65.67"/></svg>