<svg id="Layer_1" data-name="Layer 1" xmlns="http://www.w3.org/2000/svg" viewBox="0 0 670.13 412.56"><defs><style>.cls-1{fill:#f7ae2d;}.cls-2{fill:#f7ca7b;}.cls-3{fill:#de920d;}.cls-4{fill:#b06702;}.cls-5{fill:#f7d8a1;}</style></defs><title>Infographics_17</title><polygon class="cls-1" points="213.67 411.29 196.67 411.29 200.67 127.58 209.67 127.58 213.67 411.29"/><path class="cls-2" d="M4034.22,1245.43c-6.32,13-33.92,57-36.64,55.67s14.73-50.22,21.05-63.23,33.92-57,36.64-55.67S4040.54,1232.41,4034.22,1245.43Z" transform="translate(-3850.46 -1053.72)"/><path class="cls-2" d="M4120.56,1168.81c14.43-1,66.31.88,66.53,3.9s-50.86,12.35-65.29,13.39-66.31-.88-66.53-3.9S4106.14,1169.85,4120.56,1168.81Z" transform="translate(-3850.46 -1053.72)"/><path class="cls-2" d="M4011,1132.35c-8.12-12-32.4-57.87-29.89-59.57s36.12,37.87,44.24,49.85,32.4,57.87,29.89,59.57S4019.15,1144.32,4011,1132.35Z" transform="translate(-3850.46 -1053.72)"/><circle class="cls-3" cx="204.67" cy="127.58" r="13.71"/><circle class="cls-4" cx="204.67" cy="127.58" r="7.7"/><polygon class="cls-2" points="102.01 411.29 85.01 411.29 89.01 127.58 98.01 127.58 102.01 411.29"/><path class="cls-5" d="M3903.41,1234.23c-10.23,10.23-50.71,42.74-52.85,40.6s30.37-42.62,40.6-52.85,50.71-42.74,52.85-40.6S3913.64,1224,3903.41,1234.23Z" transform="translate(-3850.46 -1053.72)"/><path class="cls-5" d="M4010.08,1190.12c14,3.74,62.37,22.55,61.59,25.47s-52.09-5-66.07-8.73-62.37-22.55-61.59-25.47S3996.11,1186.37,4010.08,1190.12Z" transform="translate(-3850.46 -1053.72)"/><path class="cls-5" d="M3918.54,1119.8c-3.74-14-11.66-65.29-8.73-66.07s21.73,47.61,25.47,61.59,11.66,65.29,8.73,66.07S3922.29,1133.77,3918.54,1119.8Z" transform="translate(-3850.46 -1053.72)"/><circle class="cls-1" cx="93.01" cy="127.58" r="13.71"/><circle class="cls-3" cx="93.01" cy="127.58" r="7.7"/><polygon class="cls-2" points="471.45 411.29 454.45 411.29 458.45 127.58 467.45 127.58 471.45 411.29"/><path class="cls-5" d="M4304.72,1247.45c-3.74,14-22.55,62.37-25.47,61.59s5-52.09,8.73-66.07,22.55-62.37,25.47-61.59S4308.47,1233.48,4304.72,1247.45Z" transform="translate(-3850.46 -1053.72)"/><path class="cls-5" d="M4375,1155.91c14-3.74,65.29-11.66,66.07-8.73s-47.61,21.73-61.59,25.47-65.29,11.66-66.07,8.73S4361.07,1159.65,4375,1155.91Z" transform="translate(-3850.46 -1053.72)"/><path class="cls-5" d="M4260.61,1140.78c-10.23-10.23-42.74-50.71-40.6-52.85s42.62,30.37,52.85,40.6,42.74,50.71,40.6,52.85S4270.83,1151,4260.61,1140.78Z" transform="translate(-3850.46 -1053.72)"/><circle class="cls-1" cx="462.45" cy="127.58" r="13.71"/><circle class="cls-3" cx="462.45" cy="127.58" r="7.7"/><polygon class="cls-1" points="306.31 412.56 48.73 412.56 118.83 273.11 376.4 273.11 306.31 412.56"/><polygon class="cls-4" points="136.64 406.06 63.32 406.06 83.27 366.37 156.59 366.37 136.64 406.06"/><polygon class="cls-4" points="158.58 362.49 85.27 362.49 105.22 322.8 178.53 322.8 158.58 362.49"/><polygon class="cls-4" points="181.14 318.93 107.82 318.93 127.77 279.23 201.09 279.23 181.14 318.93"/><polygon class="cls-4" points="215.14 406.06 141.82 406.06 161.77 366.37 235.09 366.37 215.14 406.06"/><polygon class="cls-4" points="237.08 362.49 163.77 362.49 183.72 322.8 257.03 322.8 237.08 362.49"/><polygon class="cls-4" points="259.64 318.93 186.32 318.93 206.27 279.23 279.59 279.23 259.64 318.93"/><polygon class="cls-4" points="293.64 406.06 220.32 406.06 240.27 366.37 313.59 366.37 293.64 406.06"/><polygon class="cls-4" points="315.58 362.49 242.27 362.49 262.22 322.8 335.53 322.8 315.58 362.49"/><polygon class="cls-4" points="338.14 318.93 264.82 318.93 284.77 279.23 358.09 279.23 338.14 318.93"/><polygon class="cls-1" points="600.04 412.56 342.47 412.56 412.56 273.11 670.13 273.11 600.04 412.56"/><polygon class="cls-4" points="430.37 406.06 357.06 406.06 377.01 366.37 450.32 366.37 430.37 406.06"/><polygon class="cls-4" points="452.32 362.49 379 362.49 398.95 322.8 472.27 322.8 452.32 362.49"/><polygon class="cls-4" points="474.87 318.93 401.56 318.93 421.51 279.23 494.82 279.23 474.87 318.93"/><polygon class="cls-4" points="508.87 406.06 435.56 406.06 455.51 366.37 528.82 366.37 508.87 406.06"/><polygon class="cls-4" points="530.82 362.49 457.5 362.49 477.45 322.8 550.77 322.8 530.82 362.49"/><polygon class="cls-4" points="553.37 318.93 480.06 318.93 500.01 279.23 573.32 279.23 553.37 318.93"/><polygon class="cls-4" points="587.37 406.06 514.05 406.06 534.01 366.37 607.32 366.37 587.37 406.06"/><polygon class="cls-4" points="609.32 362.49 536 362.49 555.95 322.8 629.27 322.8 609.32 362.49"/><polygon class="cls-4" points="631.87 318.93 558.55 318.93 578.51 279.23 651.82 279.23 631.87 318.93"/></svg>