<svg id="Layer_1" data-name="Layer 1" xmlns="http://www.w3.org/2000/svg" viewBox="0 0 423.83 423.83"><defs><style>.cls-1{fill:#185d61;}.cls-2{fill:#c9f3f5;}.cls-3{fill:#269196;}.cls-4{fill:#8de6eb;}.cls-5{fill:#2eb1b8;}</style></defs><title>ocean-3</title><circle class="cls-1" cx="211.92" cy="211.92" r="211.92"/><rect class="cls-2" x="7480.76" y="2197.44" width="30.13" height="114.63" transform="translate(-6603.06 3877.81) rotate(-44.85)"/><rect class="cls-3" x="7496.2" y="2155.22" width="59.75" height="133.61" transform="translate(-6571.17 3889.61) rotate(-44.85)"/><rect class="cls-4" x="7461.47" y="2328.49" width="28.13" height="45.71" rx="13.92" ry="13.92" transform="translate(-6648.26 3946.71) rotate(-45.31)"/><rect class="cls-4" x="7443.25" y="2340.85" width="28.13" height="61.62" rx="13.92" ry="13.92" transform="translate(-6668.1 3939.78) rotate(-45.31)"/><rect class="cls-4" x="7425.34" y="2366.45" width="28.13" height="53.52" rx="13.92" ry="13.92" transform="translate(-6688.74 3933.44) rotate(-45.31)"/><rect class="cls-4" x="7404.55" y="2392.55" width="28.13" height="39.57" rx="13.92" ry="13.92" transform="translate(-6708.5 3924.33) rotate(-45.31)"/><path class="cls-4" d="M7294.34,2293.05s14.47,30.74,37.35,56.4,68.32,63.17,68.32,63.17l29.14-1.86,59.37-66.35s-79.87-95-92.65-98.86-17.94-5.94-25-10.4-8.22-6.54-8.22-6.54Z" transform="translate(-7194.65 -2065.17)"/><path class="cls-5" d="M7448.47,2228.61l-9.81,11.59c-5.35,0-31-5.6-42.22-1.14-8.65,3.43-42.13,39.48-42.13,39.48s-12.81,15.25,0,25.85c11.85,9.81,23.74,0,23.74,0l24.37-26.45s6.54,6.54,14.26,9.51,19.61,3.57,19.61,3.57l48.15,48.57,33.86-40.84Z" transform="translate(-7194.65 -2065.17)"/><rect class="cls-5" x="7309.12" y="2330.41" width="40.65" height="25.01" rx="12.38" ry="12.38" transform="translate(-6723.39 3767.06) rotate(-44.69)"/><rect class="cls-5" x="7320.31" y="2351.79" width="54.8" height="25.01" rx="12.38" ry="12.38" transform="translate(-6733.15 3786.09) rotate(-44.69)"/><rect class="cls-5" x="7343.75" y="2371.63" width="47.59" height="25.01" rx="12.38" ry="12.38" transform="translate(-6741.37 3805.78) rotate(-44.69)"/><rect class="cls-5" x="7369.41" y="2391.83" width="35.19" height="25.01" rx="12.38" ry="12.38" transform="translate(-6749.95 3825.31) rotate(-44.69)"/><rect class="cls-3" x="7260" y="2237.91" width="114.63" height="30.13" transform="translate(-6635.31 3786.26) rotate(-45.15)"/><rect class="cls-2" x="7220.26" y="2190.36" width="133.61" height="59.75" transform="translate(-6621.01 3755.17) rotate(-45.15)"/></svg>