<svg id="Layer_1" data-name="Layer 1" xmlns="http://www.w3.org/2000/svg" viewBox="0 0 537.02 358.1"><defs><style>.cls-1{fill:#185d61;}.cls-2{fill:#8de6eb;}.cls-3,.cls-4{fill:#2eb1b8;}.cls-10,.cls-11,.cls-3,.cls-5,.cls-6,.cls-7,.cls-8,.cls-9{stroke:#269196;stroke-linecap:round;stroke-linejoin:round;stroke-width:3px;}.cls-3{stroke-dasharray:1 5;}.cls-10,.cls-11,.cls-5,.cls-6,.cls-7,.cls-8,.cls-9{fill:none;}.cls-6{stroke-dasharray:1 5;}.cls-7{stroke-dasharray:1.21 6.06;}.cls-8{stroke-dasharray:1.02 5.11;}.cls-9{stroke-dasharray:1 4.99;}.cls-10{stroke-dasharray:1.05 5.25;}.cls-11{stroke-dasharray:0.98 4.92;}</style></defs><title>ocean-1</title><rect class="cls-1" width="535.52" height="356.93"/><path class="cls-2" d="M7128.15,1157.9s20.52,12.93,40.52,10.51,40-14.14,59,.22,66,77.36,76,113.36,15,66,5,72-16,7.68-11,21.34,14,24.66,22,18.66,32,15,43,20,15,17,22,5,27-48.32,55-43.66,63,14.66,82,36.66,36,42,60,59,30,22.79,30,22.79h52V1137.07H7128.15v20.83Z" transform="translate(-7128.15 -1137.07)"/><path class="cls-3" d="M7255.06,1198.28s9.27,0.05,10.6-3.28,0.67-6.33,5.33-6,0.67,2.26,3.67,4.63,12,8,12,8,7.67,0.67,9.33,0,7.67-8.33,12.33-4.67,8.67,10,3.67,12.33-11.33,8.67-19.33,10.67-17,7-17,7-8.58-12.66-11.62-16.79S7255.06,1198.28,7255.06,1198.28Z" transform="translate(-7128.15 -1137.07)"/><path class="cls-3" d="M7384.67,1419s-2-8,0-13,0.67-12,0-16.33,0.78-13.67,1.06-19.33,10.61-7.33,14.94-8.67,16.67-4.33,16.67-8.33,2-7,0-10-2-9-9-10.67-16.67-9-20.67-12.33-2.11-6.33-3.89-10-4.78-16.67-8.44-18,9.33-3.67,13.67,0,6.67,8.67,12,12,15.78,5.33,17.22,9.67,5.11,13.67,7.78,15.33,7.67,5,13,6,6,3,8,6,3,5,11,11.33,5.33,9.33,0,8.33-10.33-9.3-13-6.32-9.67,5-7.67,10,7.62,11.6,7.62,11.6-19.13-5.3-31.35,6.31-12.33,10-19.07,20.56S7384.67,1419,7384.67,1419Z" transform="translate(-7128.15 -1137.07)"/><path class="cls-4" d="M7470.13,1382.32s11.2-2.64,11.2-7-10.33-14-8.33-15.34,2.73-5.32,2.73-5.32,0.93-18.68,5.6-18.68,20,0.67,24,0,11-5,15.33-4,8.67,9.33,12,12.67,9.33,5.84,11.67,12.42,0.67,12.6,4,18.25,23.33,25,31.67,33,22.33,19,26.33,21.33,2.33,3.67,1.67,6.33-2,7-1.33,10.67-2.33,4.33-3.33,8.67-6,6.33-4.33,8.33,5-1,5,2-3,7.33-3,10.33,3,9.67,13.67,11.33,20,0.33,21-6-1.33-16.67,3.33-18,7.33,2.33,11,0,13.67-12,13.67-12v14.33a35.13,35.13,0,0,0-6.33,0c-3,.33-6.67,2.33-9.67,2.33s-6.33-1-7,1.67,0.67,9.67-1.33,15-3.67,9-3.67,9h-24.14s-10.5-8.7-18.82-14.72-23.86-17.82-23.86-17.82,7.16-12.79,8.82-23.12,2.67-19,2.67-19-6.67,2.67-7,0-6.87-7-6.43-4.33-1.9,8-4.9,10.33-6.67,2.67-7,6-0.93,4.32-5,6.33-5.17.84-5.17,0.84-19.62-22.39-23.17-26.18-11.69-12.32-22.24-17.56-11.83-6-17.26-8S7470.13,1382.32,7470.13,1382.32Z" transform="translate(-7128.15 -1137.07)"/><path class="cls-5" d="M7470.6,1382.48l-0.47-.15,0.48-.12" transform="translate(-7128.15 -1137.07)"/><path class="cls-6" d="M7475.36,1380.62c2.92-1.21,6-3,6-5.28,0-4.34-10.33-14-8.33-15.34s2.73-5.32,2.73-5.32,0.93-18.68,5.6-18.68,20,0.67,24,0,11-5,15.33-4,8.67,9.33,12,12.67,9.33,5.84,11.67,12.42,0.67,12.6,4,18.25,23.33,25,31.67,33,22.33,19,26.33,21.33,2.33,3.67,1.67,6.33-2,7-1.33,10.67-2.33,4.33-3.33,8.67-6,6.33-4.33,8.33,5-1,5,2-3,7.33-3,10.33,3,9.67,13.67,11.33,20,0.33,21-6-1.33-16.67,3.33-18,7.33,2.33,11,0c2.59-1.65,8.34-7,11.5-9.93" transform="translate(-7128.15 -1137.07)"/><path class="cls-5" d="M7663.31,1451.68l0.36-.34v0.5" transform="translate(-7128.15 -1137.07)"/><line class="cls-7" x1="535.52" y1="320.82" x2="535.52" y2="325.07"/><path class="cls-5" d="M7663.67,1465.17v0.5l-0.49,0" transform="translate(-7128.15 -1137.07)"/><path class="cls-8" d="M7658.07,1465.6l-0.73.07c-3,.33-6.67,2.33-9.67,2.33s-6.33-1-7,1.67,0.67,9.67-1.33,15c-0.94,2.5-1.8,4.64-2.46,6.2" transform="translate(-7128.15 -1137.07)"/><path class="cls-5" d="M7635.87,1493.21l-0.2.45h-0.5" transform="translate(-7128.15 -1137.07)"/><path class="cls-9" d="M7630.18,1493.67h-18.65s-10.5-8.7-18.82-14.72c-6.32-4.57-16.81-12.48-21.48-16" transform="translate(-7128.15 -1137.07)"/><path class="cls-5" d="M7569.24,1461.42l-0.39-.3,0.24-.44" transform="translate(-7128.15 -1137.07)"/><path class="cls-10" d="M7571.45,1456c2.22-4.68,5.22-11.79,6.22-18,1.06-6.58,1.85-12.48,2.29-15.9" transform="translate(-7128.15 -1137.07)"/><path class="cls-5" d="M7580.27,1419.49l0.06-.49-0.46.17" transform="translate(-7128.15 -1137.07)"/><path class="cls-11" d="M7575.07,1420.18c-0.93,0-1.63-.36-1.74-1.18-0.33-2.67-6.87-7-6.43-4.33s-1.9,8-4.9,10.33-6.67,2.67-7,6-0.93,4.32-5,6.33-5.17.84-5.17,0.84-19.62-22.39-23.17-26.18-11.69-12.32-22.24-17.56-11.83-6-17.26-8c-3.2-1.16-6.8-2.38-9.22-3.19" transform="translate(-7128.15 -1137.07)"/><path class="cls-1" d="M7355.3,1156h5.49v2.29h-8.46v-12.8h3V1156Z" transform="translate(-7128.15 -1137.07)"/><path class="cls-1" d="M7372.8,1153.09a5.35,5.35,0,0,1-1.5,3.9,5.23,5.23,0,0,1-3.92,1.53,5.22,5.22,0,0,1-5.46-5.43v-2.3a5.33,5.33,0,0,1,1.51-3.89,5.78,5.78,0,0,1,7.85,0,5.33,5.33,0,0,1,1.51,3.89v2.3Zm-3-2.32a3.71,3.71,0,0,0-.65-2.25,2.35,2.35,0,0,0-3.67,0,3.73,3.73,0,0,0-.64,2.25v2.32a3.73,3.73,0,0,0,.65,2.27,2.16,2.16,0,0,0,1.85.88,2.11,2.11,0,0,0,1.81-.88,3.75,3.75,0,0,0,.64-2.27v-2.32Z" transform="translate(-7128.15 -1137.07)"/><path class="cls-1" d="M7381.21,1154.94a1.27,1.27,0,0,0-.45-1,5.81,5.81,0,0,0-1.63-.78,12.35,12.35,0,0,1-3.54-1.65,3,3,0,0,1-1.16-2.52,3.09,3.09,0,0,1,1.34-2.6,6.48,6.48,0,0,1,6.94,0,3.32,3.32,0,0,1,1.29,2.89l0,0.05h-2.88a1.61,1.61,0,0,0-.49-1.31,2.29,2.29,0,0,0-1.49-.41,1.91,1.91,0,0,0-1.27.4,1.23,1.23,0,0,0-.47,1,1.05,1.05,0,0,0,.48.9,9.37,9.37,0,0,0,1.79.85,9.53,9.53,0,0,1,3.37,1.61,3.2,3.2,0,0,1,1.14,2.6,3.08,3.08,0,0,1-1.32,2.64,5.84,5.84,0,0,1-3.5,1,6.39,6.39,0,0,1-3.68-1,3.53,3.53,0,0,1-1.46-3.22l0-.05h2.89a2,2,0,0,0,.55,1.59,2.54,2.54,0,0,0,1.68.47,2.18,2.18,0,0,0,1.39-.37A1.18,1.18,0,0,0,7381.21,1154.94Z" transform="translate(-7128.15 -1137.07)"/><path class="cls-1" d="M7397,1155.85h-3.81l-0.74,2.49h-3.13l4.17-12.8h3.19l4.18,12.8h-3.13Zm-3.12-2.29h2.43l-1.2-4H7395Z" transform="translate(-7128.15 -1137.07)"/><path class="cls-1" d="M7412.44,1158.33h-3l-4.68-8.05-0.05,0v8h-3v-12.8h3l4.68,8,0.05,0v-8h3v12.8Z" transform="translate(-7128.15 -1137.07)"/><path class="cls-1" d="M7424.59,1156.57a5.34,5.34,0,0,1-1.88,1.38,7.35,7.35,0,0,1-3.12.57,5.28,5.28,0,0,1-3.87-1.46,5.08,5.08,0,0,1-1.49-3.79v-2.67a5.16,5.16,0,0,1,1.45-3.78,5,5,0,0,1,3.72-1.47,5.49,5.49,0,0,1,3.71,1.09,3.65,3.65,0,0,1,1.21,3l0,0.05h-2.79a1.8,1.8,0,0,0-.5-1.4,2.18,2.18,0,0,0-1.51-.46,2,2,0,0,0-1.67.82,3.38,3.38,0,0,0-.63,2.13v2.69a3.42,3.42,0,0,0,.63,2.15,2.1,2.1,0,0,0,1.76.81,5,5,0,0,0,1.29-.13,2.07,2.07,0,0,0,.74-0.35v-2.29h-2.27v-2h5.24v5.07Z" transform="translate(-7128.15 -1137.07)"/><path class="cls-1" d="M7433.85,1152.86h-4.51V1156h5.41v2.29h-8.38v-12.8h8.38v2.29h-5.41v2.75h4.51v2.29Z" transform="translate(-7128.15 -1137.07)"/><path class="cls-1" d="M7439.39,1156h5.49v2.29h-8.46v-12.8h3V1156Z" transform="translate(-7128.15 -1137.07)"/><path class="cls-1" d="M7454,1152.86h-4.51V1156h5.41v2.29h-8.38v-12.8h8.38v2.29h-5.41v2.75H7454v2.29Z" transform="translate(-7128.15 -1137.07)"/><path class="cls-1" d="M7463.12,1154.94a1.27,1.27,0,0,0-.45-1,5.81,5.81,0,0,0-1.63-.78,12.35,12.35,0,0,1-3.54-1.65,3,3,0,0,1-1.16-2.52,3.09,3.09,0,0,1,1.34-2.6,6.48,6.48,0,0,1,6.94,0,3.32,3.32,0,0,1,1.29,2.89l0,0.05H7463a1.61,1.61,0,0,0-.49-1.31,2.29,2.29,0,0,0-1.49-.41,1.91,1.91,0,0,0-1.27.4,1.23,1.23,0,0,0-.47,1,1.05,1.05,0,0,0,.48.9,9.37,9.37,0,0,0,1.79.85,9.53,9.53,0,0,1,3.37,1.61,3.2,3.2,0,0,1,1.14,2.6,3.08,3.08,0,0,1-1.32,2.64,5.84,5.84,0,0,1-3.5,1,6.39,6.39,0,0,1-3.68-1,3.53,3.53,0,0,1-1.46-3.22l0-.05H7459a2,2,0,0,0,.55,1.59,2.54,2.54,0,0,0,1.68.47,2.18,2.18,0,0,0,1.39-.37A1.18,1.18,0,0,0,7463.12,1154.94Z" transform="translate(-7128.15 -1137.07)"/><path class="cls-1" d="M7403.42,1366h5.49v2.29h-8.46v-12.8h3V1366Z" transform="translate(-7128.15 -1137.07)"/><path class="cls-1" d="M7420.92,1363.09a5.35,5.35,0,0,1-1.5,3.9,5.23,5.23,0,0,1-3.92,1.53,5.22,5.22,0,0,1-5.46-5.43v-2.3a5.34,5.34,0,0,1,1.51-3.89,5.78,5.78,0,0,1,7.85,0,5.33,5.33,0,0,1,1.51,3.89v2.3Zm-3-2.32a3.71,3.71,0,0,0-.65-2.25,2.35,2.35,0,0,0-3.67,0,3.74,3.74,0,0,0-.64,2.25v2.32a3.73,3.73,0,0,0,.65,2.27,2.16,2.16,0,0,0,1.85.88,2.11,2.11,0,0,0,1.81-.88,3.75,3.75,0,0,0,.64-2.27v-2.32Z" transform="translate(-7128.15 -1137.07)"/><path class="cls-1" d="M7433.4,1368.33h-3l-4.69-8.05-0.05,0v8h-3v-12.8h3l4.69,8,0.05,0v-8h3v12.8Z" transform="translate(-7128.15 -1137.07)"/><path class="cls-1" d="M7445.54,1366.57a5.34,5.34,0,0,1-1.88,1.38,7.34,7.34,0,0,1-3.12.57,5.28,5.28,0,0,1-3.87-1.46,5.08,5.08,0,0,1-1.49-3.79v-2.67a5.16,5.16,0,0,1,1.45-3.78,5,5,0,0,1,3.72-1.47,5.49,5.49,0,0,1,3.71,1.09,3.65,3.65,0,0,1,1.21,3l0,0.05h-2.79a1.8,1.8,0,0,0-.5-1.4,2.18,2.18,0,0,0-1.51-.46,2,2,0,0,0-1.67.82,3.38,3.38,0,0,0-.63,2.13v2.69a3.43,3.43,0,0,0,.63,2.15,2.1,2.1,0,0,0,1.76.81,5,5,0,0,0,1.29-.13,2.07,2.07,0,0,0,.74-0.35v-2.29h-2.27v-2h5.24v5.07Z" transform="translate(-7128.15 -1137.07)"/><path class="cls-1" d="M7451.81,1368.33v-12.8H7456a6.68,6.68,0,0,1,3.71.88,3,3,0,0,1,1.33,2.63,3.11,3.11,0,0,1-.42,1.62,2.6,2.6,0,0,1-1.32,1.07,2.67,2.67,0,0,1,1.69,1,3,3,0,0,1,.55,1.78,3.34,3.34,0,0,1-1.26,2.83,5.85,5.85,0,0,1-3.6,1h-4.88Zm3-7.46H7456a2.78,2.78,0,0,0,1.6-.37,1.27,1.27,0,0,0,.53-1.11,1.38,1.38,0,0,0-.51-1.19,2.65,2.65,0,0,0-1.56-.37h-1.22v3Zm0,2V1366h1.91a2.28,2.28,0,0,0,1.42-.37,1.37,1.37,0,0,0,.47-1.15,1.69,1.69,0,0,0-.42-1.24,2,2,0,0,0-1.38-.45h-2Z" transform="translate(-7128.15 -1137.07)"/><path class="cls-1" d="M7470.77,1362.86h-4.51V1366h5.4v2.29h-8.37v-12.8h8.38v2.29h-5.41v2.75h4.51v2.29Z" transform="translate(-7128.15 -1137.07)"/><path class="cls-1" d="M7480,1365.85h-3.8l-0.74,2.49h-3.13l4.17-12.8h3.19l4.18,12.8h-3.13Zm-3.12-2.29h2.43l-1.2-4h-0.05Z" transform="translate(-7128.15 -1137.07)"/><path class="cls-1" d="M7494.55,1364l0,0.05a4.12,4.12,0,0,1-1.23,3.32,5.24,5.24,0,0,1-3.6,1.13,5,5,0,0,1-5.25-5.25v-2.67a5.28,5.28,0,0,1,1.38-3.79,4.82,4.82,0,0,1,3.66-1.46,5.64,5.64,0,0,1,3.77,1.13,4,4,0,0,1,1.3,3.3l0,0.05h-2.89a2.35,2.35,0,0,0-.5-1.69,2.23,2.23,0,0,0-1.64-.51,1.74,1.74,0,0,0-1.54.8,3.8,3.8,0,0,0-.54,2.14v2.69a3.58,3.58,0,0,0,.59,2.15,2,2,0,0,0,1.69.81,1.88,1.88,0,0,0,1.47-.51,2.56,2.56,0,0,0,.45-1.71h2.89Z" transform="translate(-7128.15 -1137.07)"/><path class="cls-1" d="M7506.88,1368.33h-3v-5.15h-4.74v5.15h-3v-12.8h3v5.36h4.74v-5.36h3v12.8Z" transform="translate(-7128.15 -1137.07)"/><path class="cls-1" d="M7582.23,1325.18h-3.81l-0.74,2.49h-3.13l4.17-12.8h3.19l4.18,12.8H7583Zm-3.12-2.29h2.43l-1.2-4h-0.05Z" transform="translate(-7128.15 -1137.07)"/><path class="cls-1" d="M7597.69,1327.67h-3l-4.68-8.05-0.05,0v8h-3v-12.8h3l4.68,8,0.05,0v-8h3v12.8Z" transform="translate(-7128.15 -1137.07)"/><path class="cls-1" d="M7606.59,1325.18h-3.81l-0.74,2.49h-3.13l4.17-12.8h3.19l4.18,12.8h-3.13Zm-3.12-2.29h2.43l-1.2-4h-0.05Z" transform="translate(-7128.15 -1137.07)"/><path class="cls-1" d="M7622,1327.67h-3v-5.15h-4.74v5.15h-3v-12.8h3v5.36h4.74v-5.36h3v12.8Z" transform="translate(-7128.15 -1137.07)"/><path class="cls-1" d="M7631.56,1322.19h-4.51v3.19h5.41v2.29h-8.38v-12.8h8.38v2.29h-5.41v2.75h4.51v2.29Z" transform="translate(-7128.15 -1137.07)"/><path class="cls-1" d="M7637.28,1327.67h-3v-12.8h3v12.8Z" transform="translate(-7128.15 -1137.07)"/><path class="cls-1" d="M7646.26,1323.83h0.05l2.89-9h3.93v12.8h-3v-8.24h-0.05l-2.82,8.25h-2l-2.77-8.13h-0.05v8.12h-3v-12.8h3.89Z" transform="translate(-7128.15 -1137.07)"/></svg>