<?xml version="1.0" encoding="utf-8"?>
<!-- Generator: Adobe Illustrator 17.1.0, SVG Export Plug-In . SVG Version: 6.00 Build 0)  -->
<!DOCTYPE svg PUBLIC "-//W3C//DTD SVG 1.1//EN" "http://www.w3.org/Graphics/SVG/1.1/DTD/svg11.dtd">
<svg version="1.1" id="Layer_1" xmlns="http://www.w3.org/2000/svg" xmlns:xlink="http://www.w3.org/1999/xlink" x="0px" y="0px"
	 viewBox="0 0 646.1 451.4" enable-background="new 0 0 646.1 451.4" xml:space="preserve">
<path fill="none" stroke="#0A6889" stroke-width="13.3467" stroke-linecap="round" stroke-linejoin="round" stroke-miterlimit="10" d="
	M278.5,158.6"/>
<path fill="#185D61" d="M969.4,220.2c0,20.2-15.5,36.6-34.5,36.6s-34.5-16.4-34.5-36.6c0,20.2-15.5,36.6-34.5,36.6
	c-19.1,0-34.5-16.4-34.5-36.6v148.3H1073V256.8c-22.6,0-0.9-32.3-10.9-53.8c-9.5,19-19.6,53.8-58.1,53.8
	C984.9,256.8,969.5,240.4,969.4,220.2L969.4,220.2z"/>
<path fill="#185D61" d="M1280.2,258c-19.1,0-34.9-16.4-34.9-36.6l0,0c0,11.6-13.3,33.8-48.3,33.8c-26.7,0-48.3-21.6-48.3-48.3
	s21.6-48.3,48.3-48.3c0,0-26.7-42.8-85.7-11.3c-48,25.6-59.3,90.3-72.8,99.8v196.3h241.7V258z"/>
<path fill="#2EB1B8" d="M1176.6,295.2c0,20.2-15.5,36.6-34.5,36.6s-34.5-16.4-34.5-36.6c0,20.2-15.5,36.6-34.5,36.6
	c-19.1,0-34.5-16.4-34.5-36.6v148.3h241.7V331.8c-19.1,0-34.5-16.4-34.5-36.6c0,20.2-15.5,36.6-34.5,36.6S1176.6,315.4,1176.6,295.2
	L1176.6,295.2z"/>
<path fill="#C9F3F5" d="M1176.6,354.7c0,20.2-15.5,36.6-34.5,36.6s-34.5-16.4-34.5-36.6c0,20.2-15.5,36.6-34.5,36.6
	c-19.1,0-34.5-16.4-34.5-36.6v88.7h241.7v-52.1c-19.1,0-34.5-16.4-34.5-36.6c0,20.2-15.5,36.6-34.5,36.6S1176.6,375,1176.6,354.7
	L1176.6,354.7z"/>
<path fill="#2EB1B8" d="M969.4,295.2c0,20.2-15.5,36.6-34.5,36.6s-34.5-16.4-34.5-36.6c0,20.2-15.5,36.6-34.5,36.6
	c-19.1,0-34.5-16.4-34.5-36.6v148.3H1073V331.8c-19.1,0-34.5-16.4-34.5-36.6c0,20.2-15.5,36.6-34.5,36.6S969.5,315.4,969.4,295.2
	L969.4,295.2z"/>
<path fill="#C9F3F5" d="M969.4,354.7c0,20.2-15.5,36.6-34.5,36.6s-34.5-16.4-34.5-36.6c0,20.2-15.5,36.6-34.5,36.6
	c-19.1,0-34.5-16.4-34.5-36.6v88.7H1073v-52.1c-19.1,0-34.5-16.4-34.5-36.6c0,20.2-15.5,36.6-34.5,36.6S969.5,375,969.4,354.7
	L969.4,354.7z"/>
<g>
	<defs>
		<rect id="SVGID_1_" x="6.6" y="124.1" width="310.4" height="319.3"/>
	</defs>
	<clipPath id="SVGID_2_">
		<use xlink:href="#SVGID_1_"  overflow="visible"/>
	</clipPath>
	<g clip-path="url(#SVGID_2_)">
		<path fill="#185D61" d="M281.8,221.4c0,11.6-13.3,33.8-48.3,33.8c-26.7,0-48.3-21.6-48.3-48.3c0-26.7,21.6-48.3,48.3-48.3
			c0,0-26.7-42.8-85.7-11.3c-32.8,17.5-45.4,53.1-59.4,77.2c-8.7,16.3-23.4,32.3-45.9,32.3C23.4,256.8,6,240.4,6,220.2h0
			c0,20.2-15.5,36.6-34.5,36.6s-34.5-16.4-34.5-36.6c0,20.2-0.4,148.3-0.4,148.3H75v75h241.7V258C297.7,258,281.8,241.6,281.8,221.4
			z"/>
		<path fill="#2EB1B8" d="M213.1,295.2c0,20.2-15.5,36.6-34.5,36.6s-34.5-16.4-34.5-36.6c0,20.2-15.5,36.6-34.5,36.6
			S75,315.4,75,295.2v148.3h241.7V331.8c-19.1,0-34.5-16.4-34.5-36.6c0,20.2-15.5,36.6-34.5,36.6S213.1,315.4,213.1,295.2
			L213.1,295.2z"/>
		<path fill="#C9F3F5" d="M213.1,354.7c0,20.2-15.5,36.6-34.5,36.6s-34.5-16.4-34.5-36.6c0,20.2-15.5,36.6-34.5,36.6
			S75,375,75,354.7v88.7h241.7v-52.1c-19.1,0-34.5-16.4-34.5-36.6c0,20.2-15.5,36.6-34.5,36.6S213.1,375,213.1,354.7L213.1,354.7z"
			/>
		<path fill="#2EB1B8" d="M5.9,295.2c0,20.2-15.5,36.6-34.5,36.6s-34.5-16.4-34.5-36.6c0,20.2-0.4,148.3-0.4,148.3h173.1V331.8
			c-19.1,0-34.5-16.4-34.5-36.6c0,20.2-15.5,36.6-34.5,36.6S6,315.4,5.9,295.2L5.9,295.2z"/>
		<path fill="#C9F3F5" d="M5.9,354.7c0,20.2-15.5,36.6-34.5,36.6s-34.6-16.4-34.6-36.6c0,20.2,0,88.7,0,88.7h172.7v-52.1
			C90.5,391.4,75,375,75,354.7c0,20.2-15.5,36.6-34.5,36.6S6,375,5.9,354.7L5.9,354.7z"/>
	</g>
</g>
<g>
	<polygon fill="#2EB1B8" points="478.6,131.4 454.6,199.9 483.6,199.9 464.9,257.2 519.3,175.7 486.9,175.7 507,131.4 	"/>
	<g>
		<g>
			
				<line fill="none" stroke="#42CCD4" stroke-width="6" stroke-linecap="round" stroke-linejoin="round" x1="424.6" y1="148" x2="423.9" y2="150.4"/>
			
				<line fill="none" stroke="#42CCD4" stroke-width="6" stroke-linecap="round" stroke-linejoin="round" stroke-dasharray="5.034,10.068" x1="421.1" y1="160.1" x2="397.3" y2="242.3"/>
			
				<line fill="none" stroke="#42CCD4" stroke-width="6" stroke-linecap="round" stroke-linejoin="round" x1="395.9" y1="247.1" x2="395.3" y2="249.5"/>
		</g>
	</g>
	<g>
		<g>
			
				<line fill="none" stroke="#42CCD4" stroke-width="6" stroke-linecap="round" stroke-linejoin="round" x1="396.1" y1="148" x2="395.4" y2="150.4"/>
			
				<line fill="none" stroke="#42CCD4" stroke-width="6" stroke-linecap="round" stroke-linejoin="round" stroke-dasharray="5.4662,10.9325" x1="392.4" y1="160.9" x2="380.3" y2="202.9"/>
			
				<line fill="none" stroke="#42CCD4" stroke-width="6" stroke-linecap="round" stroke-linejoin="round" x1="378.8" y1="208.2" x2="378.1" y2="210.6"/>
		</g>
	</g>
	<g>
		<g>
			
				<line fill="none" stroke="#42CCD4" stroke-width="6" stroke-linecap="round" stroke-linejoin="round" x1="450.2" y1="148" x2="449.5" y2="150.4"/>
			
				<line fill="none" stroke="#42CCD4" stroke-width="6" stroke-linecap="round" stroke-linejoin="round" stroke-dasharray="4.9631,9.9262" x1="446.8" y1="159.9" x2="427.5" y2="226.7"/>
			
				<line fill="none" stroke="#42CCD4" stroke-width="6" stroke-linecap="round" stroke-linejoin="round" x1="426.1" y1="231.5" x2="425.4" y2="233.9"/>
		</g>
	</g>
	<g>
		<g>
			
				<line fill="none" stroke="#42CCD4" stroke-width="6" stroke-linecap="round" stroke-linejoin="round" x1="543.5" y1="148" x2="542.8" y2="150.4"/>
			
				<line fill="none" stroke="#42CCD4" stroke-width="6" stroke-linecap="round" stroke-linejoin="round" stroke-dasharray="4.7336,9.4672" x1="540.2" y1="159.5" x2="525.7" y2="209.5"/>
			
				<line fill="none" stroke="#42CCD4" stroke-width="6" stroke-linecap="round" stroke-linejoin="round" x1="524.4" y1="214.1" x2="523.7" y2="216.5"/>
		</g>
	</g>
	<g>
		<g>
			
				<line fill="none" stroke="#42CCD4" stroke-width="6" stroke-linecap="round" stroke-linejoin="round" x1="570.2" y1="148" x2="569.5" y2="150.4"/>
			
				<line fill="none" stroke="#42CCD4" stroke-width="6" stroke-linecap="round" stroke-linejoin="round" stroke-dasharray="5.034,10.068" x1="566.7" y1="160.1" x2="542.9" y2="242.3"/>
			
				<line fill="none" stroke="#42CCD4" stroke-width="6" stroke-linecap="round" stroke-linejoin="round" x1="541.5" y1="247.1" x2="540.9" y2="249.5"/>
		</g>
	</g>
	<g>
		<g>
			
				<line fill="none" stroke="#42CCD4" stroke-width="6" stroke-linecap="round" stroke-linejoin="round" x1="599.5" y1="148" x2="598.8" y2="150.4"/>
			
				<line fill="none" stroke="#42CCD4" stroke-width="6" stroke-linecap="round" stroke-linejoin="round" stroke-dasharray="5.4662,10.9325" x1="595.8" y1="160.9" x2="583.7" y2="202.9"/>
			
				<line fill="none" stroke="#42CCD4" stroke-width="6" stroke-linecap="round" stroke-linejoin="round" x1="582.1" y1="208.2" x2="581.4" y2="210.6"/>
		</g>
	</g>
	<path fill="#185D61" d="M395.9,147.9c0,0-50.7,0-50.7-36c0-38.7,52-35.3,52-35.3S403,39,435.9,32.1c32-6.7,48.1,15.7,48.1,15.7
		S500.4,3,543.3,9.2c46,6.7,44.7,59.3,44.7,59.3s48.7,0,48.7,39.3c0,44.7-54.7,40-74,40C543.3,147.9,395.9,147.9,395.9,147.9z"/>
</g>
</svg>
