<svg id="Layer_1" data-name="Layer 1" xmlns="http://www.w3.org/2000/svg" viewBox="0 0 743.51 351.69"><defs><style>.cls-1{fill:#7f2424;}.cls-2{fill:#e6e7e8;}</style></defs><title>public-health-3</title><rect class="cls-1" y="127.84" width="73.43" height="223.85"/><rect class="cls-1" x="56.47" y="71.87" width="73.43" height="279.81"/><rect class="cls-1" x="221.07" y="113.68" width="73.43" height="238.01"/><rect class="cls-1" x="298.62" y="151.73" width="73.43" height="199.96"/><rect class="cls-1" x="391.53" y="77.84" width="73.43" height="273.85"/><rect class="cls-1" x="492.49" y="142.95" width="73.43" height="208.74"/><rect class="cls-1" x="586.86" y="178.06" width="73.43" height="173.63"/><rect class="cls-1" x="265.7" y="35.66" width="73.43" height="316.03"/><rect class="cls-1" x="167.61" y="35.66" width="65.85" height="316.03"/><rect class="cls-1" x="174.75" y="9.88" width="51.57" height="34.5"/><ellipse class="cls-1" cx="200.54" cy="9.88" rx="25.79" ry="9.88"/><rect class="cls-1" y="247.32" width="660.29" height="104.37"/><path class="cls-2" d="M2726.67,1937c69.95,0,72.89,29.76,122,29.76,52.46,0,101.42-29.76,101.42-29.76s-25.52,54.94-100.52,54.94c-50,0-54.57-27.42-127.91-27.42-86.57,0-115,32-115,32S2657.65,1937,2726.67,1937Z" transform="translate(-2206.59 -1701.86)"/><path class="cls-2" d="M2606.74,1812.4c69.95,0,72.89,29.76,122,29.76,52.46,0,101.42-29.76,101.42-29.76s-25.52,54.94-100.52,54.94c-50,0-54.57-27.42-127.91-27.42-86.57,0-115,32-115,32S2537.72,1812.4,2606.74,1812.4Z" transform="translate(-2206.59 -1701.86)"/><path class="cls-2" d="M2343.18,1886.86c69.95,0,72.89,29.76,122,29.76,52.46,0,101.42-29.76,101.42-29.76s-25.52,54.94-100.52,54.94c-50,0-54.57-27.42-127.91-27.42-86.57,0-115,32-115,32S2274.16,1886.86,2343.18,1886.86Z" transform="translate(-2206.59 -1701.86)"/></svg>