<svg id="Layer_1" data-name="Layer 1" xmlns="http://www.w3.org/2000/svg" viewBox="0 0 476.86 400.21"><defs><style>.cls-1{fill:#e85858;}.cls-2{fill:#e6e7e8;}.cls-3{fill:#7f2424;}.cls-4{fill:#c13636;}.cls-5{fill:#ed7979;}.cls-6{fill:#e8e8e8;}.cls-7{fill:none;stroke:#7f2424;stroke-linecap:round;stroke-linejoin:round;stroke-width:2.25px;}</style></defs><title>public-health-4</title><path class="cls-1" d="M1775.6,2205.13s-104,226,80,226c166,0,122-210,58-262,0,0,4,74.27-28,86,0,0,11-98-66-144,0,0,21.58,132.27-16,160C1803.6,2271.13,1773.6,2259.13,1775.6,2205.13Z" transform="translate(-1746.32 -2111.13)"/><path class="cls-2" d="M1815,2303.4s-54.68,118.82,42.06,118.82c87.28,0,64.14-110.41,30.49-137.75,0,0,2.1,39-14.72,45.22,0,0,5.78-51.53-34.7-75.71,0,0,11.35,69.54-8.41,84.12C1829.69,2338.1,1813.92,2331.79,1815,2303.4Z" transform="translate(-1746.32 -2111.13)"/><ellipse class="cls-3" cx="315.19" cy="181.65" rx="30.98" ry="40.1"/><rect class="cls-4" x="315.19" y="165.1" width="85.72" height="33.1"/><ellipse class="cls-4" cx="315.19" cy="181.65" rx="7.64" ry="16.55"/><rect class="cls-4" x="386.48" y="135.96" width="36.49" height="48.08"/><ellipse class="cls-4" cx="404.73" cy="184.04" rx="27.66" ry="27.02"/><ellipse class="cls-3" cx="404.73" cy="135.96" rx="20.79" ry="20.31"/><rect class="cls-3" x="380.54" y="135.9" width="48.37" height="20.37"/><rect class="cls-3" x="396.66" y="96.14" width="16.12" height="28.86"/><rect class="cls-3" x="370.74" y="89.78" width="67.98" height="12.73"/><circle class="cls-3" cx="404.73" cy="96.14" r="14.43"/><path class="cls-4" d="M2162.2,2281.09h30.95c11.86,0,25.79,0,25.79,16v32h-23.21v-16.25c0-7,.88-7.74-12.89-7.74h-23.73Z" transform="translate(-1746.32 -2111.13)"/><rect class="cls-4" x="444.61" y="213.26" width="32.25" height="9.34"/><ellipse class="cls-4" cx="460.74" cy="222.6" rx="16.12" ry="2.55"/><ellipse class="cls-4" cx="460.74" cy="213.26" rx="16.12" ry="2.55"/><circle class="cls-3" cx="264.96" cy="354.85" r="7.61"/><path class="cls-5" d="M2039.66,2435.65S2097.55,2390,2104,2404,2039.66,2435.65,2039.66,2435.65Z" transform="translate(-1746.32 -2111.13)"/><path class="cls-6" d="M2040.54,2435.88s66.2-32.48,69.59-17.39S2040.54,2435.88,2040.54,2435.88Z" transform="translate(-1746.32 -2111.13)"/><line class="cls-7" x1="258.37" y1="358.64" x2="238.72" y2="380.49"/><polyline class="cls-7" points="298.48 337.66 301.83 360.76 289.99 384.99"/><polyline class="cls-7" points="325.74 339.92 334.58 324.75 340.7 358.64 363.92 367.9"/><path class="cls-3" d="M2011.28,2466s12.07-26.66,23.91-30.09,69.31,26.43,61.5,39.57c-5.78,9.73-21.71-2.71-33.71-9.48s-23.69-14.37-23.69-14.37Z" transform="translate(-1746.32 -2111.13)"/><polyline class="cls-7" points="327.69 351.94 350.36 337.66 337.51 380.49 360.43 399.08"/><polyline class="cls-7" points="300.39 341.61 285.81 332.59 285.81 362.45 265.96 388.94"/><polyline class="cls-7" points="308.02 341.61 316.65 326.39 312.11 373.72 320.24 395.7"/><polyline class="cls-7" points="292.96 329.77 279.11 358.64 258.37 377.67"/></svg>