<svg id="Layer_1" data-name="Layer 1" xmlns="http://www.w3.org/2000/svg" viewBox="0 0 271.37 250.02"><defs><style>.cls-1{fill:#f79f9f;}.cls-2{fill:#c13636;}.cls-3{fill:#7f2424;}.cls-4{fill:#f9d9d9;}</style></defs><title>energy-1</title><circle class="cls-1" cx="36.68" cy="213.33" r="36.68"/><rect class="cls-1" x="18.69" y="26.53" width="36" height="186.8" rx="17.82" ry="17.82"/><circle class="cls-2" cx="36.68" cy="213.33" r="26.68"/><rect class="cls-2" x="28.35" y="53.55" width="16.67" height="156" rx="8.25" ry="8.25"/><rect class="cls-3" x="34.35" y="150.89" width="21.33" height="5.33"/><rect class="cls-3" x="34.35" y="131.55" width="21.33" height="5.33"/><rect class="cls-3" x="34.35" y="112.22" width="21.33" height="5.33"/><rect class="cls-3" x="34.35" y="92.89" width="21.33" height="5.33"/><rect class="cls-3" x="34.35" y="73.55" width="21.33" height="5.33"/><path class="cls-1" d="M2561.23,1111.7c16.89-9.14,32.1-29.22,32.1-29.22s14.42,20.3,31.32,30.05,41.35,13.19,41.35,13.19-10.37,20.78-10.37,42.15,9.25,42.41,9.25,42.41-22.68,2.25-41.68,12.1-32.1,29.22-32.1,29.22-14.42-18.89-31.32-30.05-41.35-13.19-41.35-13.19,10.37-21.49,10.37-42.15-9.25-42.41-9.25-42.41S2544.34,1120.85,2561.23,1111.7Z" transform="translate(-2394.63 -1082.49)"/><circle class="cls-4" cx="197.59" cy="84.55" r="53.33"/></svg>