<svg id="Layer_1" data-name="Layer 1" xmlns="http://www.w3.org/2000/svg" viewBox="0 0 770.94 221.15"><defs><style>.cls-1{fill:none;stroke:#f79f9f;stroke-miterlimit:10;stroke-width:3px;}.cls-2{fill:#c13636;}.cls-3{fill:#7f2424;}.cls-4{fill:#e85858;}.cls-5{fill:#f79f9f;}.cls-6{fill:#ed7979;}.cls-7{fill:#e6e7e8;}</style></defs><title>public-health-2</title><line class="cls-1" x1="667.06" y1="110.57" x2="99.86" y2="110.57"/><line class="cls-1" x1="190.79" y1="19.07" x2="37.32" y2="202.08"/><line class="cls-1" x1="303.1" y1="19.07" x2="149.62" y2="202.08"/><line class="cls-1" x1="415.4" y1="19.07" x2="261.93" y2="202.08"/><line class="cls-1" x1="527.71" y1="19.07" x2="374.23" y2="202.08"/><line class="cls-1" x1="640.02" y1="19.07" x2="486.54" y2="202.08"/><polygon class="cls-2" points="366.94 180.67 409.74 130 349.4 130 307.04 180.67 366.94 180.67"/><rect class="cls-2" x="349.83" y="115.6" width="59.91" height="14.4"/><ellipse class="cls-3" cx="375.52" cy="172.71" rx="6.08" ry="10.32"/><ellipse class="cls-3" cx="314.93" cy="172.71" rx="6.08" ry="10.32"/><ellipse class="cls-3" cx="403.66" cy="137.5" rx="6.08" ry="10.32"/><rect class="cls-3" x="307.04" y="166.27" width="59.91" height="14.4"/><polygon class="cls-4" points="366.94 166.27 409.74 115.6 349.4 115.6 307.04 166.27 366.94 166.27"/><polygon class="cls-5" points="392.48 128.32 347.46 128.32 347.46 118.8 385.05 118.06 392.48 128.32"/><polygon class="cls-5" points="371.78 152.83 392.48 128.32 347.22 128.32 326.73 152.83 371.78 152.83"/><polygon class="cls-6" points="371.74 152.83 326.73 152.83 331.15 133.78 371.74 133.78 371.74 152.83"/><polygon class="cls-2" points="371.78 133.78 385.05 118.06 344.25 118.11 331.15 133.78 371.78 133.78"/><polygon class="cls-2" points="478.31 180.67 521.11 130 460.77 130 418.4 180.67 478.31 180.67"/><rect class="cls-2" x="461.2" y="115.6" width="59.91" height="14.4"/><ellipse class="cls-3" cx="486.89" cy="172.71" rx="6.08" ry="10.32"/><ellipse class="cls-3" cx="426.29" cy="172.71" rx="6.08" ry="10.32"/><ellipse class="cls-3" cx="515.03" cy="137.5" rx="6.08" ry="10.32"/><rect class="cls-3" x="418.4" y="166.27" width="59.91" height="14.4"/><polygon class="cls-4" points="478.31 166.27 521.11 115.6 460.77 115.6 418.4 166.27 478.31 166.27"/><polygon class="cls-5" points="503.85 128.32 458.83 128.32 458.83 118.8 496.42 118.06 503.85 128.32"/><polygon class="cls-5" points="483.15 152.83 503.85 128.32 458.58 128.32 438.09 152.83 483.15 152.83"/><polygon class="cls-6" points="483.11 152.83 438.09 152.83 442.52 133.78 483.11 133.78 483.11 152.83"/><polygon class="cls-2" points="483.15 133.78 496.42 118.06 455.62 118.11 442.52 133.78 483.15 133.78"/><polygon class="cls-2" points="216.68 90.96 258.17 41.83 199.68 41.83 158.6 90.96 216.68 90.96"/><rect class="cls-2" x="200.09" y="27.87" width="58.08" height="13.96"/><ellipse class="cls-3" cx="225" cy="83.24" rx="5.9" ry="10"/><ellipse class="cls-3" cx="166.25" cy="83.24" rx="5.9" ry="10"/><ellipse class="cls-3" cx="252.28" cy="49.1" rx="5.9" ry="10"/><rect class="cls-3" x="158.6" y="77" width="58.08" height="13.96"/><polygon class="cls-4" points="216.68 77 258.17 27.87 199.68 27.87 158.6 77 216.68 77"/><polygon class="cls-5" points="241.44 40.21 197.8 40.21 197.8 30.97 234.24 30.26 241.44 40.21"/><polygon class="cls-5" points="221.37 63.97 241.44 40.21 197.56 40.21 177.69 63.97 221.37 63.97"/><polygon class="cls-6" points="221.34 63.97 177.69 63.97 181.99 45.49 221.34 45.49 221.34 63.97"/><polygon class="cls-2" points="221.37 45.49 234.24 30.26 194.68 30.3 181.99 45.49 221.37 45.49"/><polygon class="cls-7" points="659.94 0 215.86 0 185.47 0 0 221.15 111 221.15 542.86 221.15 585.48 221.15 770.94 0 659.94 0"/><line class="cls-1" x1="669.06" y1="110.57" x2="101.86" y2="110.57"/><line class="cls-1" x1="305.1" y1="19.07" x2="151.62" y2="202.08"/><line class="cls-1" x1="417.4" y1="19.07" x2="263.93" y2="202.08"/><line class="cls-1" x1="529.71" y1="19.07" x2="376.23" y2="202.08"/><line class="cls-1" x1="642.02" y1="19.07" x2="488.54" y2="202.08"/><polygon class="cls-2" points="368.94 180.67 411.74 130 351.4 130 309.04 180.67 368.94 180.67"/><rect class="cls-2" x="351.83" y="115.6" width="59.91" height="14.4"/><ellipse class="cls-3" cx="377.52" cy="172.71" rx="6.08" ry="10.32"/><ellipse class="cls-3" cx="316.93" cy="172.71" rx="6.08" ry="10.32"/><ellipse class="cls-3" cx="405.66" cy="137.5" rx="6.08" ry="10.32"/><rect class="cls-3" x="309.04" y="166.27" width="59.91" height="14.4"/><polygon class="cls-4" points="368.94 166.27 411.74 115.6 351.4 115.6 309.04 166.27 368.94 166.27"/><polygon class="cls-5" points="394.48 128.32 349.46 128.32 349.46 118.8 387.05 118.06 394.48 128.32"/><polygon class="cls-5" points="373.78 152.83 394.48 128.32 349.22 128.32 328.73 152.83 373.78 152.83"/><polygon class="cls-6" points="373.74 152.83 328.73 152.83 333.15 133.78 373.74 133.78 373.74 152.83"/><polygon class="cls-2" points="373.78 133.78 387.05 118.06 346.25 118.11 333.15 133.78 373.78 133.78"/><polygon class="cls-2" points="480.31 180.67 523.11 130 462.77 130 420.4 180.67 480.31 180.67"/><rect class="cls-2" x="463.2" y="115.6" width="59.91" height="14.4"/><ellipse class="cls-3" cx="488.89" cy="172.71" rx="6.08" ry="10.32"/><ellipse class="cls-3" cx="428.29" cy="172.71" rx="6.08" ry="10.32"/><ellipse class="cls-3" cx="517.03" cy="137.5" rx="6.08" ry="10.32"/><rect class="cls-3" x="420.4" y="166.27" width="59.91" height="14.4"/><polygon class="cls-4" points="480.31 166.27 523.11 115.6 462.77 115.6 420.4 166.27 480.31 166.27"/><polygon class="cls-5" points="505.85 128.32 460.83 128.32 460.83 118.8 498.42 118.06 505.85 128.32"/><polygon class="cls-5" points="485.15 152.83 505.85 128.32 460.58 128.32 440.09 152.83 485.15 152.83"/><polygon class="cls-6" points="485.11 152.83 440.09 152.83 444.52 133.78 485.11 133.78 485.11 152.83"/><polygon class="cls-2" points="485.15 133.78 498.42 118.06 457.62 118.11 444.52 133.78 485.15 133.78"/><polygon class="cls-2" points="218.68 90.96 260.17 41.83 201.68 41.83 160.6 90.96 218.68 90.96"/><rect class="cls-2" x="202.09" y="27.87" width="58.08" height="13.96"/><ellipse class="cls-3" cx="227" cy="83.24" rx="5.9" ry="10"/><ellipse class="cls-3" cx="168.25" cy="83.24" rx="5.9" ry="10"/><ellipse class="cls-3" cx="254.28" cy="49.1" rx="5.9" ry="10"/><rect class="cls-3" x="160.6" y="77" width="58.08" height="13.96"/><polygon class="cls-4" points="218.68 77 260.17 27.87 201.68 27.87 160.6 77 218.68 77"/><polygon class="cls-5" points="243.44 40.21 199.8 40.21 199.8 30.97 236.24 30.26 243.44 40.21"/><polygon class="cls-5" points="223.37 63.97 243.44 40.21 199.56 40.21 179.69 63.97 223.37 63.97"/><polygon class="cls-6" points="223.34 63.97 179.69 63.97 183.99 45.49 223.34 45.49 223.34 63.97"/><polygon class="cls-2" points="223.37 45.49 236.24 30.26 196.68 30.3 183.99 45.49 223.37 45.49"/></svg>