<svg id="Layer_1" data-name="Layer 1" xmlns="http://www.w3.org/2000/svg" viewBox="0 0 607.63 563"><defs><style>.cls-1{fill:#47515e;}.cls-2,.cls-3,.cls-4{fill:none;stroke:#e4ebf5;stroke-miterlimit:10;stroke-width:3px;}.cls-3{stroke-dasharray:9.87 4.94;}.cls-4{stroke-dasharray:9.88 4.94;}</style></defs><title>transportation-2</title><path class="cls-1" d="M5159.86,1396.84A101.93,101.93,0,0,0,5015.71,1541c39.81,39.81,183.39,39.25,183.39,39.25S5199.67,1436.64,5159.86,1396.84Zm-11.14,133s-75.73.29-96.73-20.7a53.76,53.76,0,1,1,76-76C5149,1454.11,5148.72,1529.85,5148.72,1529.85Z" transform="translate(-4949.53 -1318.07)"/><path class="cls-1" d="M5382.5,1619.48c-39.81-39.81-183.39-39.25-183.39-39.25s-0.56,143.59,39.25,183.39A101.93,101.93,0,1,0,5382.5,1619.48Zm-36.28,107.87a53.76,53.76,0,0,1-76,0c-21-21-20.7-96.73-20.7-96.73s75.73-.29,96.73,20.7A53.76,53.76,0,0,1,5346.22,1727.35Z" transform="translate(-4949.53 -1318.07)"/><path class="cls-1" d="M5382.5,1396.84a101.93,101.93,0,0,0-144.15,0c-39.81,39.81-39.25,183.39-39.25,183.39s143.59,0.56,183.39-39.25A101.93,101.93,0,0,0,5382.5,1396.84Zm-36.28,112.31c-21,21-96.73,20.7-96.73,20.7s-0.29-75.73,20.7-96.73A53.76,53.76,0,0,1,5346.22,1509.15Z" transform="translate(-4949.53 -1318.07)"/><path class="cls-1" d="M5199.11,1580.23s-143.59-.56-183.39,39.25a101.93,101.93,0,0,0,144.15,144.15C5199.67,1723.82,5199.11,1580.23,5199.11,1580.23ZM5128,1727.35a53.76,53.76,0,1,1-76-76c21-21,96.73-20.7,96.73-20.7S5149,1706.35,5128,1727.35Z" transform="translate(-4949.53 -1318.07)"/><rect class="cls-1" x="200.73" y="5.93" width="94" height="557.07"/><line class="cls-2" x1="247.73" y1="563" x2="247.73" y2="558"/><line class="cls-3" x1="247.73" y1="553.06" x2="247.73" y2="7.47"/><line class="cls-2" x1="247.73" y1="5" x2="247.73"/><rect class="cls-1" y="213.32" width="606.2" height="94"/><line class="cls-2" y1="260.32" x2="5" y2="260.32"/><line class="cls-4" x1="9.94" y1="260.32" x2="600.16" y2="260.32"/><line class="cls-2" x1="602.63" y1="260.32" x2="607.63" y2="260.32"/></svg>