<svg id="Layer_1" data-name="Layer 1" xmlns="http://www.w3.org/2000/svg" viewBox="0 0 507.67 209.73"><defs><style>.cls-1{fill:#47515e;}.cls-2{fill:#e4ebf5;}.cls-3,.cls-5{fill:none;stroke-miterlimit:10;stroke-width:13px;}.cls-3{stroke:#8c939c;}.cls-4{fill:#8c939c;}.cls-5{stroke:#6d7987;}.cls-6{fill:#6d7987;}.cls-7{fill:#9fa7b2;}.cls-8{fill:#b8c2cf;}</style></defs><title>transportation-1</title><rect class="cls-1" x="17.82" y="163.24" width="20.37" height="45.61" rx="10.08" ry="10.08"/><rect class="cls-1" x="93.63" y="163.24" width="20.37" height="45.61" rx="10.08" ry="10.08"/><rect class="cls-1" x="176.77" y="164.13" width="20.37" height="45.61" rx="10.08" ry="10.08"/><rect class="cls-1" x="309.94" y="164.13" width="20.37" height="45.61" rx="10.08" ry="10.08"/><path class="cls-2" d="M5663.53,1175.69H5570.2l9.55-34.66a10,10,0,0,1,9.64-7.34h55A10,10,0,0,1,5654,1141Z" transform="translate(-5549.53 -1027.31)"/><path class="cls-3" d="M5663.53,1175.69H5570.2l9.55-34.66a10,10,0,0,1,9.64-7.34h55A10,10,0,0,1,5654,1141Z" transform="translate(-5549.53 -1027.31)"/><path class="cls-4" d="M5666,1221.53h-98.26a18.09,18.09,0,0,1-18.2-18v-16.21a18.09,18.09,0,0,1,18.2-18H5666a18.09,18.09,0,0,1,18.2,18v16.21A18.09,18.09,0,0,1,5666,1221.53Z" transform="translate(-5549.53 -1027.31)"/><circle class="cls-2" cx="28" cy="168.71" r="10"/><circle class="cls-2" cx="103.82" cy="168.71" r="10"/><rect class="cls-1" x="390.82" y="163.24" width="20.37" height="45.61" rx="10.08" ry="10.08"/><rect class="cls-1" x="466.63" y="163.24" width="20.37" height="45.61" rx="10.08" ry="10.08"/><path class="cls-2" d="M6036.53,1175.69H5943.2l9.55-34.66a10,10,0,0,1,9.64-7.34h55A10,10,0,0,1,6027,1141Z" transform="translate(-5549.53 -1027.31)"/><path class="cls-5" d="M6036.53,1175.69H5943.2l9.55-34.66a10,10,0,0,1,9.64-7.34h55A10,10,0,0,1,6027,1141Z" transform="translate(-5549.53 -1027.31)"/><path class="cls-6" d="M6039,1221.53h-98.26a18.09,18.09,0,0,1-18.2-18v-16.21a18.09,18.09,0,0,1,18.2-18H6039a18.09,18.09,0,0,1,18.2,18v16.21A18.09,18.09,0,0,1,6039,1221.53Z" transform="translate(-5549.53 -1027.31)"/><circle class="cls-2" cx="401" cy="168.71" r="10"/><circle class="cls-2" cx="476.82" cy="168.71" r="10"/><rect class="cls-6" x="164.39" y="171.13" width="177.89" height="22.8" rx="6.43" ry="6.43"/><path class="cls-7" d="M5849.54,1074.31H5756.2l9.55-34.66a10,10,0,0,1,9.64-7.34h55a10,10,0,0,1,9.64,7.34Z" transform="translate(-5549.53 -1027.31)"/><rect class="cls-6" x="176.57" y="125.27" width="153.54" height="58.67" rx="8.75" ry="8.75"/><rect class="cls-6" x="199.61" y="38.5" width="107.45" height="110.77" rx="10.54" ry="10.54"/><rect class="cls-8" x="224.57" y="114.17" width="57.53" height="57.53" rx="9.55" ry="9.55"/><rect class="cls-4" x="232.34" y="125" width="42" height="6.5" rx="3.22" ry="3.22"/><rect class="cls-4" x="232.34" y="139.68" width="42" height="6.5" rx="3.22" ry="3.22"/><rect class="cls-4" x="232.34" y="154.36" width="42" height="6.5" rx="3.22" ry="3.22"/><rect class="cls-2" x="185.31" y="145.09" width="29" height="14.68" rx="7.27" ry="7.27"/><rect class="cls-2" x="292.76" y="145.09" width="29" height="14.68" rx="7.27" ry="7.27"/><rect class="cls-2" x="214.31" y="53" width="78.04" height="38" rx="5.66" ry="5.66"/><polygon class="cls-8" points="199.81 125.27 189.07 125.27 189.07 7 199.81 0 199.81 125.27"/><polygon class="cls-8" points="307.06 125.27 317.81 125.27 317.81 7 307.06 0 307.06 125.27"/><rect class="cls-8" x="421.47" y="157.55" width="37.73" height="21.17"/></svg>