<svg id="Layer_1" data-name="Layer 1" xmlns="http://www.w3.org/2000/svg" viewBox="0 0 220.06 396.77"><defs><style>.cls-1{fill:#0a6889;}.cls-2{fill:#208ba8;}.cls-3{fill:#4cbde5;}.cls-4{fill:#c8eaf4;}.cls-5{fill:#2fa4d6;}</style></defs><title>water-3</title><ellipse class="cls-1" cx="189.08" cy="99.93" rx="30.98" ry="40.1"/><rect class="cls-2" x="103.37" y="83.38" width="85.72" height="33.1"/><ellipse class="cls-2" cx="189.08" cy="99.93" rx="7.64" ry="16.55"/><rect class="cls-2" x="81.3" y="54.25" width="36.49" height="48.08"/><ellipse class="cls-2" cx="99.55" cy="102.33" rx="27.66" ry="27.02"/><ellipse class="cls-1" cx="99.55" cy="54.25" rx="20.79" ry="20.31"/><rect class="cls-1" x="75.36" y="54.19" width="48.37" height="20.37"/><rect class="cls-1" x="91.48" y="14.43" width="16.12" height="28.86"/><rect class="cls-1" x="65.56" y="8.06" width="67.98" height="12.73"/><circle class="cls-1" cx="99.55" cy="14.43" r="14.43"/><path class="cls-2" d="M881.6,1780.22H850.65c-11.86,0-25.79,0-25.79,16v32h23.21v-16.25c0-7-.88-7.74,12.89-7.74h23.73Z" transform="translate(-793.21 -1691.97)"/><rect class="cls-2" x="27.41" y="131.55" width="32.25" height="9.34"/><ellipse class="cls-2" cx="43.53" cy="140.88" rx="16.12" ry="2.55"/><ellipse class="cls-2" cx="43.53" cy="131.55" rx="16.12" ry="2.55"/><path class="cls-3" d="M836.26,1902.81c6.77,0,11.35-4.61,10.88-12.76s-10.88-24.5-10.88-24.5-10.4,16.29-10.88,24.5S829.49,1902.81,836.26,1902.81Z" transform="translate(-793.21 -1691.97)"/><path class="cls-4" d="M837.23,1899.69s3.95,1.13,6.42-3.14a6.84,6.84,0,0,0-.05-7.07,15.34,15.34,0,0,1-1.54,5.46A12.62,12.62,0,0,1,837.23,1899.69Z" transform="translate(-793.21 -1691.97)"/><polygon class="cls-3" points="70.62 390.96 14.51 390.96 0 242.72 85.13 242.72 70.62 390.96"/><ellipse class="cls-5" cx="42.56" cy="390.96" rx="28.05" ry="5.8"/><ellipse class="cls-4" cx="42.56" cy="242.71" rx="42.56" ry="8.22"/><polygon class="cls-5" points="70.62 390.96 14.51 390.96 11.52 360.17 73.62 360.05 70.62 390.96"/><ellipse class="cls-2" cx="42.56" cy="360.17" rx="31.07" ry="5.46"/></svg>