<svg id="Layer_1" data-name="Layer 1" xmlns="http://www.w3.org/2000/svg" viewBox="0 0 755.12 223.29"><defs><style>.cls-1{fill:#208ba8;}.cls-2{fill:#89d6f0;}.cls-3,.cls-4{fill:none;stroke:#c8eaf4;stroke-linecap:round;stroke-linejoin:round;stroke-width:5px;}.cls-4{stroke-dasharray:6.08 14.6;}.cls-5{fill:#0a6889;}</style></defs><title>water-5</title><rect class="cls-1" x="159" y="117.5" width="25.5" height="50"/><ellipse class="cls-1" cx="171.75" cy="122.92" rx="20.25" ry="10.42"/><ellipse class="cls-1" cx="171.75" cy="129.25" rx="20.25" ry="10.42"/><ellipse class="cls-2" cx="171.75" cy="116.36" rx="12.75" ry="6.56"/><path class="cls-3" d="M682.46,2623.25q-1-1-2-2" transform="translate(-532 -2517.32)"/><path class="cls-4" d="M669.45,2611.61c-41.69-33.28-94.19-39.63-127.28-15" transform="translate(-532 -2517.32)"/><path class="cls-3" d="M536.56,2601.29q-1,1-2.06,2" transform="translate(-532 -2517.32)"/><path class="cls-3" d="M680.1,2635.29l-2.77-.72" transform="translate(-532 -2517.32)"/><path class="cls-4" d="M663,2631.72c-52.74-8-101.39,12.77-117.71,50.68" transform="translate(-532 -2517.32)"/><path class="cls-3" d="M542.77,2689.23q-0.42,1.36-.8,2.75" transform="translate(-532 -2517.32)"/><path class="cls-3" d="M694.59,2613.49q-0.37-1.39-.77-2.76" transform="translate(-532 -2517.32)"/><path class="cls-4" d="M689.15,2596.9c-19.46-49.66-61.75-81.42-102.74-76.6" transform="translate(-532 -2517.32)"/><path class="cls-3" d="M579.22,2521.52q-1.39.31-2.78,0.68" transform="translate(-532 -2517.32)"/><path class="cls-3" d="M725,2623.25q1-1,2-2" transform="translate(-532 -2517.32)"/><path class="cls-4" d="M738,2611.61c41.69-33.28,94.19-39.63,127.28-15" transform="translate(-532 -2517.32)"/><path class="cls-3" d="M870.94,2601.29q1,1,2.06,2" transform="translate(-532 -2517.32)"/><path class="cls-3" d="M712.91,2613.49q0.37-1.39.77-2.76" transform="translate(-532 -2517.32)"/><path class="cls-4" d="M718.35,2596.9c19.46-49.66,61.75-81.42,102.74-76.6" transform="translate(-532 -2517.32)"/><path class="cls-3" d="M828.28,2521.52q1.39,0.31,2.78.68" transform="translate(-532 -2517.32)"/><rect class="cls-1" x="520.25" y="117.5" width="25.5" height="50"/><ellipse class="cls-1" cx="533" cy="122.92" rx="20.25" ry="10.42"/><ellipse class="cls-1" cx="533" cy="129.25" rx="20.25" ry="10.42"/><ellipse class="cls-2" cx="533" cy="116.36" rx="12.75" ry="6.56"/><path class="cls-3" d="M1043.71,2623.25q-1-1-2-2" transform="translate(-532 -2517.32)"/><path class="cls-4" d="M1030.7,2611.61c-41.69-33.28-94.19-39.63-127.28-15" transform="translate(-532 -2517.32)"/><path class="cls-3" d="M897.81,2601.29q-1,1-2.06,2" transform="translate(-532 -2517.32)"/><path class="cls-3" d="M1055.84,2613.49q-0.37-1.39-.77-2.76" transform="translate(-532 -2517.32)"/><path class="cls-4" d="M1050.4,2596.9c-19.46-49.66-61.75-81.42-102.74-76.6" transform="translate(-532 -2517.32)"/><path class="cls-3" d="M940.47,2521.52q-1.39.31-2.78,0.68" transform="translate(-532 -2517.32)"/><path class="cls-3" d="M1086.29,2623.25q1-1,2-2" transform="translate(-532 -2517.32)"/><path class="cls-4" d="M1099.3,2611.61c41.69-33.28,94.19-39.63,127.28-15" transform="translate(-532 -2517.32)"/><path class="cls-3" d="M1232.19,2601.29q1,1,2.06,2" transform="translate(-532 -2517.32)"/><path class="cls-3" d="M1074.16,2613.49q0.37-1.39.77-2.76" transform="translate(-532 -2517.32)"/><path class="cls-4" d="M1079.6,2596.9c19.46-49.66,61.75-81.42,102.74-76.6" transform="translate(-532 -2517.32)"/><path class="cls-3" d="M1189.53,2521.52q1.39,0.31,2.78.68" transform="translate(-532 -2517.32)"/><polygon class="cls-5" points="746.37 157.29 737.87 147.71 729.62 157.04 721.87 147.71 712.87 158.29 703.87 147.71 695.87 157.29 686.87 147.71 677.37 157.79 668.12 147.71 659.37 157.29 650.87 147.71 642.62 157.04 634.87 147.71 625.87 158.29 616.87 147.71 608.87 157.29 599.87 147.71 590.37 157.79 581.12 147.71 572.37 157.29 563.87 147.71 555.62 157.04 547.87 147.71 538.87 158.29 529.87 147.71 521.87 157.29 512.87 147.71 503.37 157.79 494.12 147.71 485.37 157.29 476.87 147.71 468.62 157.04 460.87 147.71 451.87 158.29 442.87 147.71 434.87 157.29 425.87 147.71 416.37 157.79 407.12 147.71 398.37 157.29 389.87 147.71 381.62 157.04 373.87 147.71 364.87 158.29 355.87 147.71 347.87 157.29 338.87 147.71 329.37 157.79 320.12 147.71 311.37 157.29 302.87 147.71 294.62 157.04 286.87 147.71 277.87 158.29 268.87 147.71 260.87 157.29 251.87 147.71 242.37 157.79 233.12 147.71 224.37 157.29 215.87 147.71 207.62 157.04 199.87 147.71 190.87 158.29 181.87 147.71 173.87 157.29 164.87 147.71 155.37 157.79 146.12 147.71 137.37 157.29 128.87 147.71 120.62 157.04 112.87 147.71 103.87 158.29 94.87 147.71 86.87 157.29 77.87 147.71 68.37 157.79 59.12 147.71 59.12 223.29 407.12 223.29 755.12 223.29 755.12 147.71 746.37 157.29"/><path class="cls-3" d="M727.4,2635.29l2.77-.72" transform="translate(-532 -2517.32)"/><path class="cls-4" d="M744.49,2631.72c52.74-8,101.39,12.77,117.71,50.68" transform="translate(-532 -2517.32)"/><path class="cls-3" d="M864.73,2689.23q0.42,1.36.8,2.75" transform="translate(-532 -2517.32)"/><path class="cls-3" d="M1041.35,2635.29l-2.77-.72" transform="translate(-532 -2517.32)"/><path class="cls-4" d="M1024.26,2631.72c-52.74-8-101.39,12.77-117.71,50.68" transform="translate(-532 -2517.32)"/><path class="cls-3" d="M904,2689.23q-0.42,1.36-.8,2.75" transform="translate(-532 -2517.32)"/><path class="cls-3" d="M1088.65,2635.29l2.77-.72" transform="translate(-532 -2517.32)"/><path class="cls-4" d="M1105.74,2631.72c52.74-8,101.39,12.77,117.71,50.68" transform="translate(-532 -2517.32)"/><path class="cls-3" d="M1226,2689.23q0.42,1.36.8,2.75" transform="translate(-532 -2517.32)"/></svg>