<svg id="Layer_1" data-name="Layer 1" xmlns="http://www.w3.org/2000/svg" viewBox="0 0 893.96 244.72"><defs><style>.cls-1{fill:#4cbde5;}.cls-2{fill:#f1f2f2;}.cls-3{fill:#208ba8;}.cls-4{fill:#89d6f0;}.cls-5{fill:#0a6889;}</style></defs><title>water-2</title><path class="cls-1" d="M342.24,1667s-129-130.69-148.49-162.19-63.57-84-92.53-82.5-84.46,118.49-138.46,174S-137.73,1667-137.73,1667" transform="translate(137.73 -1422.26)"/><path class="cls-2" d="M49,1511.24c-9.77,8.72-37,22.13-14.5-11.8,27.13-41,50.9-76.32,66.74-77.14,29-1.5,73,51,92.53,82.5,4.61,7.45-24.22-2.9-31.5,7.76-5.82,8.53-6.05,29.12-13.56,29.12-21.36,0-31.42-12.7-51.71-5.11-15.51,5.8-21.16-16.4-32-7.33C50.56,1541.29,56.72,1504.32,49,1511.24Z" transform="translate(137.73 -1422.26)"/><path class="cls-3" d="M549.23,1667s-129-130.69-148.49-162.19-63.57-84-92.53-82.5-84.46,118.49-138.46,174S69.26,1667,69.26,1667" transform="translate(137.73 -1422.26)"/><path class="cls-4" d="M263.71,1504.32c-9.77,8.72-32.21,10.15-22.25-4.88,27.15-40.94,50.9-76.32,66.74-77.14,29-1.5,73,51,92.53,82.5,4.61,7.45-32.51-24.89-39.79-14.23-5.82,8.53.28,20.4-7.23,20.4-21.36,0-17.81-4.1-38.1,3.5-15.51,5.8-24.49-9.06-35.33,0C265.87,1526.52,271.46,1497.4,263.71,1504.32Z" transform="translate(137.73 -1422.26)"/><path class="cls-5" d="M756.22,1667s-129-130.69-148.49-162.19-63.57-84-92.53-82.5-84.46,118.49-138.46,174S276.25,1667,276.25,1667" transform="translate(137.73 -1422.26)"/><path class="cls-1" d="M462.62,1486c-10.92,7.24-10.34,7.69,8-19.28,17.51-25.68,33.27-43.81,44.63-44.4,20.73-1.07,43.47,19.35,62.32,41.94,7.49,9-13.5-4.23-13.67,16-0.08,10-5.33,12.25-12.83,12.25-21.36,0-20.5-11.92-46.5,3.75C490.44,1504.78,477,1476.49,462.62,1486Z" transform="translate(137.73 -1422.26)"/></svg>