<svg id="Layer_1" data-name="Layer 1" xmlns="http://www.w3.org/2000/svg" viewBox="0 0 773.67 352.73"><defs><style>.cls-1{fill:#c8eaf4;}.cls-2{fill:#0a6889;}.cls-3{fill:#4cbde5;}.cls-4{fill:#208ba8;}</style></defs><title>water-4</title><rect class="cls-1" x="217.77" width="164" height="38.56"/><path class="cls-2" d="M-85.18,2421.25s63.15-180,326.66-180,327.22,180,327.22,180" transform="translate(85.18 -2068.51)"/><rect class="cls-1" x="204.77" y="49.73" width="189" height="189"/><rect class="cls-3" x="346.27" y="119.73" width="193.91" height="119"/><rect class="cls-3" x="217.77" y="65.73" width="24" height="24"/><rect class="cls-3" x="264.44" y="65.73" width="24" height="24"/><rect class="cls-3" x="311.1" y="65.73" width="24" height="24"/><rect class="cls-3" x="357.77" y="65.73" width="24" height="24"/><rect class="cls-1" x="357.77" y="132.23" width="24" height="24"/><rect class="cls-1" x="394.42" y="132.23" width="24" height="24"/><rect class="cls-1" x="431.08" y="132.23" width="24" height="24"/><rect class="cls-1" x="467.74" y="132.23" width="24" height="24"/><rect class="cls-1" x="504.39" y="132.23" width="24" height="24"/><rect class="cls-3" x="134.27" y="119.73" width="119" height="119"/><rect class="cls-1" x="145.77" y="132.23" width="95.5" height="24"/><rect class="cls-1" x="145.77" y="167.23" width="95.5" height="24"/><rect class="cls-3" x="277.77" y="167.23" width="43" height="71.5"/><rect class="cls-1" x="393.77" y="172.73" width="134.62" height="44.78"/><rect class="cls-3" x="192.82" y="38.56" width="212.91" height="11.18"/><rect class="cls-3" x="431.08" y="100.45" width="97.31" height="19.28"/><rect class="cls-1" x="630.17" y="270.51" width="101.82" height="82.22"/><rect class="cls-4" x="640.54" y="319.36" width="26.98" height="33.37"/><circle class="cls-4" cx="654.03" cy="319.36" r="13.49"/><rect class="cls-4" x="702.67" y="255.01" width="64" height="97.72"/><rect class="cls-4" x="625.67" y="265.51" width="77" height="5"/><rect class="cls-1" x="696.67" y="250.51" width="77" height="5"/><rect class="cls-1" x="712.17" y="283.15" width="21.22" height="43.94"/><rect class="cls-1" x="736.95" y="283.15" width="21.22" height="43.94"/><rect class="cls-4" x="640.54" y="275.01" width="8.25" height="8.25"/><rect class="cls-4" x="655.03" y="275.01" width="8.25" height="8.25"/><rect class="cls-4" x="669.52" y="275.01" width="8.25" height="8.25"/><rect class="cls-4" x="684.01" y="275.01" width="8.25" height="8.25"/><rect class="cls-1" x="712.05" y="263.88" width="8.25" height="8.25"/><rect class="cls-1" x="724.63" y="263.88" width="8.25" height="8.25"/><rect class="cls-1" x="737.21" y="263.88" width="8.25" height="8.25"/><rect class="cls-1" x="749.8" y="263.88" width="8.25" height="8.25"/></svg>