<svg id="Layer_1" data-name="Layer 1" xmlns="http://www.w3.org/2000/svg" viewBox="0 0 541.75 316.65"><defs><style>.cls-1{fill:#89d6f0;}.cls-2{fill:#4cbde5;}.cls-3{fill:#c8eaf4;}.cls-4{fill:#2fa4d6;}.cls-5{fill:#0a6889;}.cls-6{fill:#208ba8;}</style></defs><title>water-1</title><polygon class="cls-1" points="353.64 285.95 309.99 285.95 298.71 170.63 364.93 170.63 353.64 285.95"/><ellipse class="cls-2" cx="331.82" cy="285.95" rx="21.82" ry="4.51"/><ellipse class="cls-3" cx="331.82" cy="170.63" rx="33.11" ry="6.4"/><polygon class="cls-2" points="353.64 285.95 309.99 285.95 302.14 205 361.49 205 353.64 285.95"/><ellipse class="cls-4" cx="331.82" cy="205" rx="29.67" ry="5.22"/><polygon class="cls-2" points="330.18 100.31 328.18 205 335.72 205 333.72 100.31 330.18 100.31"/><ellipse class="cls-2" cx="331.95" cy="205" rx="3.77" ry="0.97"/><polygon class="cls-1" points="188.47 285.95 232.11 285.95 243.4 170.63 177.18 170.63 188.47 285.95"/><ellipse class="cls-2" cx="210.29" cy="285.95" rx="21.82" ry="4.51"/><ellipse class="cls-3" cx="210.29" cy="170.63" rx="33.11" ry="6.4"/><polygon class="cls-2" points="188.47 285.95 232.11 285.95 234.43 262 186.13 261.9 188.47 285.95"/><path class="cls-5" d="M898.52,1375.34h-1.77v-7.65h1.77v7.65Z" transform="translate(-590.37 -1058.81)"/><path class="cls-5" d="M903.89,1373h0l1.73-5.36H908v7.65h-1.78v-4.93h0l-1.69,4.94h-1.19l-1.66-4.86h0v4.86h-1.78v-7.65h2.33Z" transform="translate(-590.37 -1058.81)"/><path class="cls-5" d="M911,1372.72v2.62h-1.78v-7.65h2.92a3.18,3.18,0,0,1,2.16.69,2.48,2.48,0,0,1,0,3.64,3.19,3.19,0,0,1-2.16.69H911Zm0-1.37h1.15A1.17,1.17,0,0,0,913,1371a1.13,1.13,0,0,0,.3-0.82,1.18,1.18,0,0,0-.3-0.83,1.15,1.15,0,0,0-.89-0.33H911v2.3Z" transform="translate(-590.37 -1058.81)"/><path class="cls-5" d="M922.44,1372.2a3.2,3.2,0,0,1-.9,2.33,3.13,3.13,0,0,1-2.34.92,3.12,3.12,0,0,1-3.26-3.25v-1.38a3.19,3.19,0,0,1,.9-2.33,3.46,3.46,0,0,1,4.7,0,3.19,3.19,0,0,1,.9,2.33v1.38Zm-1.77-1.39a2.22,2.22,0,0,0-.39-1.35,1.41,1.41,0,0,0-2.19,0,2.23,2.23,0,0,0-.38,1.35v1.39a2.23,2.23,0,0,0,.39,1.36,1.29,1.29,0,0,0,1.11.53,1.26,1.26,0,0,0,1.08-.53,2.24,2.24,0,0,0,.38-1.36v-1.39Z" transform="translate(-590.37 -1058.81)"/><path class="cls-5" d="M925.3,1372.41v2.93h-1.78v-7.65h2.67a3.31,3.31,0,0,1,2.11.62,2,2,0,0,1,.78,1.68,1.68,1.68,0,0,1-.31,1,2.22,2.22,0,0,1-.92.69,1.71,1.71,0,0,1,1,.67,2.06,2.06,0,0,1,.31,1.16V1374a3,3,0,0,0,.09.68,0.9,0.9,0,0,0,.31.55v0.11h-1.83a0.86,0.86,0,0,1-.27-0.57,5.09,5.09,0,0,1-.06-0.77v-0.46a1.13,1.13,0,0,0-.29-0.84,1.15,1.15,0,0,0-.85-0.29h-1Zm0-1.37h0.9a1.23,1.23,0,0,0,.82-0.24,0.88,0.88,0,0,0,.28-0.7,1,1,0,0,0-.29-0.75,1.13,1.13,0,0,0-.82-0.29H925.3v2Z" transform="translate(-590.37 -1058.81)"/><path class="cls-5" d="M935.45,1369.06h-2v6.29h-1.78v-6.29h-2v-1.37h5.79v1.37Z" transform="translate(-590.37 -1058.81)"/><path class="cls-5" d="M940.64,1372.07h-2.7V1374h3.23v1.37h-5v-7.65h5v1.37h-3.24v1.64h2.7v1.37Z" transform="translate(-590.37 -1058.81)"/><path class="cls-5" d="M942.18,1375.34v-7.65H945a3.12,3.12,0,0,1,2.26.88,3,3,0,0,1,.91,2.26v1.38a3,3,0,0,1-.91,2.26,3.12,3.12,0,0,1-2.26.88h-2.8Zm1.78-6.29V1374h1a1.21,1.21,0,0,0,1-.49,2,2,0,0,0,.39-1.28v-1.39a2,2,0,0,0-.39-1.27,1.22,1.22,0,0,0-1-.49h-1Z" transform="translate(-590.37 -1058.81)"/><path class="cls-5" d="M786.5,1374h3.28v1.37h-5.06v-7.65h1.78V1374Z" transform="translate(-590.37 -1058.81)"/><path class="cls-5" d="M797,1372.2a3.2,3.2,0,0,1-.9,2.33,3.13,3.13,0,0,1-2.34.92,3.12,3.12,0,0,1-3.26-3.25v-1.38a3.19,3.19,0,0,1,.9-2.33,3.46,3.46,0,0,1,4.7,0,3.19,3.19,0,0,1,.9,2.33v1.38Zm-1.77-1.39a2.22,2.22,0,0,0-.39-1.35,1.41,1.41,0,0,0-2.19,0,2.23,2.23,0,0,0-.38,1.35v1.39a2.23,2.23,0,0,0,.39,1.36,1.29,1.29,0,0,0,1.11.53,1.26,1.26,0,0,0,1.08-.53,2.24,2.24,0,0,0,.38-1.36v-1.39Z" transform="translate(-590.37 -1058.81)"/><path class="cls-5" d="M803.93,1372.76v0a2.45,2.45,0,0,1-.74,2,3.13,3.13,0,0,1-2.15.67,3,3,0,0,1-3.14-3.14v-1.6a3.15,3.15,0,0,1,.83-2.27,2.88,2.88,0,0,1,2.19-.87,3.37,3.37,0,0,1,2.25.68,2.39,2.39,0,0,1,.78,2l0,0h-1.73a1.41,1.41,0,0,0-.3-1,1.34,1.34,0,0,0-1-.3,1,1,0,0,0-.92.48,2.27,2.27,0,0,0-.32,1.28v1.61a2.14,2.14,0,0,0,.35,1.29,1.17,1.17,0,0,0,1,.48,1.12,1.12,0,0,0,.88-0.31,1.53,1.53,0,0,0,.27-1h1.73Z" transform="translate(-590.37 -1058.81)"/><path class="cls-5" d="M808.92,1373.85h-2.28l-0.44,1.49h-1.87l2.5-7.65h1.91l2.5,7.65h-1.87Zm-1.87-1.37h1.46l-0.71-2.38h0Z" transform="translate(-590.37 -1058.81)"/><path class="cls-5" d="M813.56,1374h3.28v1.37h-5.06v-7.65h1.78V1374Z" transform="translate(-590.37 -1058.81)"/><ellipse class="cls-4" cx="210.29" cy="262" rx="24.17" ry="4.25"/><polygon class="cls-2" points="211.92 99.28 213.92 262.07 206.39 262.07 208.39 99.28 211.92 99.28"/><ellipse class="cls-2" cx="210.15" cy="262.07" rx="3.77" ry="0.97"/><path class="cls-5" d="M705.56,1062.81s-26.9-14.18-51.9,10.82c-25.86,25.86-13.54,54.62-30,71.12l2.39-2.39,22-22s4.16-24.7,13.74-34.28c16-16,31.55-11,31.55-11Z" transform="translate(-590.37 -1058.81)"/><path class="cls-3" d="M801.87,1159.12s-46.82,10.64-74,37.78l-59.19,59.19-78.22-78.22,68.24-68.24,46.82-46.82,96.31,96.31" transform="translate(-590.37 -1058.81)"/><ellipse class="cls-2" cx="629.61" cy="1216.98" rx="4.51" ry="55.31" transform="translate(-1266.5 -257.16) rotate(-45)"/><polygon class="cls-2" points="147.01 129.84 78.35 197.29 0.13 119.07 7.08 112.15 125.38 112.57 147.01 129.84"/><path class="cls-2" d="M801.87,1159.12s-46.82,10.64-74,37.78S740,1164,740,1164l36.13-30.65,25.74,25.74" transform="translate(-590.37 -1058.81)"/><ellipse class="cls-4" cx="656.18" cy="1171.38" rx="4.53" ry="58.85" transform="translate(-1106.98 766.21) rotate(-89.88)"/><path class="cls-6" d="M779.1,1145.7L737,1187.85c-1.76,1.76-20.7-14.32-42.3-35.92s-37.68-40.54-35.92-42.3l46.82-46.82Z" transform="translate(-590.37 -1058.81)"/><ellipse class="cls-5" cx="753.72" cy="1110.97" rx="8.47" ry="68.1" transform="translate(-1155.18 -200.45) rotate(-45)"/><path class="cls-5" d="M1016.92,1062.81s26.9-14.18,51.9,10.82c25.86,25.86,13.54,54.62,30,71.12l-2.39-2.39-22-22s-4.16-24.7-13.74-34.28c-16-16-31.55-11-31.55-11Z" transform="translate(-590.37 -1058.81)"/><path class="cls-3" d="M920.61,1159.12s46.82,10.64,74,37.78l59.19,59.19,78.22-78.22-68.24-68.24-46.82-46.82-96.31,96.31" transform="translate(-590.37 -1058.81)"/><ellipse class="cls-2" cx="1092.88" cy="1216.98" rx="55.31" ry="4.51" transform="translate(-1130.81 70.42) rotate(-45)"/><polygon class="cls-2" points="394.75 129.84 463.4 197.29 541.62 119.07 534.67 112.15 416.37 112.57 394.75 129.84"/><path class="cls-2" d="M920.61,1159.12s46.82,10.64,74,37.78S982.48,1164,982.48,1164l-36.13-30.65-25.74,25.74" transform="translate(-590.37 -1058.81)"/><ellipse class="cls-4" cx="1066.3" cy="1171.38" rx="58.85" ry="4.53" transform="translate(-592.9 -1056.5) rotate(-0.12)"/><path class="cls-6" d="M943.38,1145.7l42.15,42.15c1.76,1.76,20.7-14.32,42.3-35.92s37.68-40.54,35.92-42.3l-46.82-46.82Z" transform="translate(-590.37 -1058.81)"/><ellipse class="cls-5" cx="968.77" cy="1110.97" rx="68.1" ry="8.47" transform="translate(-1092.19 -48.39) rotate(-45)"/></svg>