<?xml version="1.0" encoding="utf-8"?>
<!-- Generator: Adobe Illustrator 17.1.0, SVG Export Plug-In . SVG Version: 6.00 Build 0)  -->
<!DOCTYPE svg PUBLIC "-//W3C//DTD SVG 1.1//EN" "http://www.w3.org/Graphics/SVG/1.1/DTD/svg11.dtd">
<svg version="1.1" id="Layer_1" xmlns="http://www.w3.org/2000/svg" xmlns:xlink="http://www.w3.org/1999/xlink" x="0px" y="0px"
	 viewBox="0 0 468 186.5" enable-background="new 0 0 468 186.5" xml:space="preserve">
<g>
	<path fill="none" stroke="#F7AE2D" stroke-width="1.5" stroke-linecap="round" stroke-linejoin="round" stroke-miterlimit="10" d="
		M32.9,55.1c2.1,0,4.2-0.5,5.1-1.5c1.8-2,2.1-8.2,3.1-16.5c1-8.3,6-10.1,6-18.8c0-7.9-4.7-15.9-14.2-15.9s-14.1,8.1-14.2,15.9
		c0,8.7,5,10.6,6,18.8c1,8.3,1.3,14.5,3.1,16.5C28.7,54.6,30.7,55.1,32.9,55.1z"/>
	
		<line fill="none" stroke="#F7AE2D" stroke-width="1.5" stroke-linecap="round" stroke-linejoin="round" stroke-miterlimit="10" x1="24.9" y1="39.2" x2="40.8" y2="39.2"/>
	
		<line fill="none" stroke="#F7AE2D" stroke-width="1.5" stroke-linecap="round" stroke-linejoin="round" stroke-miterlimit="10" x1="25.4" y1="43.4" x2="35.5" y2="43.4"/>
	
		<line fill="none" stroke="#F7AE2D" stroke-width="1.5" stroke-linecap="round" stroke-linejoin="round" stroke-miterlimit="10" x1="25.9" y1="47.6" x2="30.5" y2="47.6"/>
	
		<line fill="none" stroke="#F7AE2D" stroke-width="1.5" stroke-linecap="round" stroke-linejoin="round" stroke-miterlimit="10" x1="26.8" y1="51.7" x2="32.2" y2="51.7"/>
	<path fill="none" stroke="#F7AE2D" stroke-width="1.5" stroke-linecap="round" stroke-linejoin="round" stroke-miterlimit="10" d="
		M30.3,55.1c0,1.4,1.2,2.6,2.6,2.6c1.4,0,2.6-1.2,2.6-2.6"/>
	<path fill="none" stroke="#F7AE2D" stroke-width="1.5" stroke-linecap="round" stroke-linejoin="round" stroke-miterlimit="10" d="
		M31.2,39.2c0,0,0.9-22.2-2.8-20.9c-2.7,1,0,4.6,4.5,4.6s7.1-3.6,4.5-4.7c-3.7-1.5-3,20.9-3,20.9"/>
</g>
<g>
	<path fill="none" stroke="#8C939C" stroke-width="1.5" stroke-linecap="round" stroke-linejoin="round" stroke-miterlimit="10" d="
		M146.5,52h-35.3c-2.4,0-4.3-1.9-4.3-4.3V6.4c0-2.4,1.9-4.3,4.3-4.3h35.3c2.4,0,4.3,1.9,4.3,4.3v41.3C150.8,50.1,148.9,52,146.5,52z
		"/>
	<path fill="none" stroke="#8C939C" stroke-width="1.5" stroke-linecap="round" stroke-linejoin="round" stroke-miterlimit="10" d="
		M141.7,33h-25.8c-2.4,0-4.4-2-4.4-4.4V17.3c0-2.4,2-4.4,4.4-4.4h25.8c2.4,0,4.4,2,4.4,4.4v11.3C146.1,31,144.1,33,141.7,33z"/>
	<path fill="none" stroke="#8C939C" stroke-width="1.5" stroke-linecap="round" stroke-linejoin="round" stroke-miterlimit="10" d="
		M132.8,9.5h-8c-1.1,0-2-0.9-2-2v0c0-1.1,0.9-2,2-2h8c1.1,0,2,0.9,2,2v0C134.8,8.6,133.9,9.5,132.8,9.5z"/>
	<path fill="none" stroke="#8C939C" stroke-width="1.5" stroke-linecap="round" stroke-linejoin="round" stroke-miterlimit="10" d="
		M104.2,23h2.7V13h-2.7c-0.7,0-1.3,0.6-1.3,1.3v7.3C102.8,22.4,103.4,23,104.2,23z"/>
	<path fill="none" stroke="#8C939C" stroke-width="1.5" stroke-linecap="round" stroke-linejoin="round" stroke-miterlimit="10" d="
		M153.5,13h-2.7v10h2.7c0.7,0,1.3-0.6,1.3-1.3v-7.3C154.8,13.6,154.2,13,153.5,13z"/>
	
		<circle fill="none" stroke="#8C939C" stroke-width="1.5" stroke-linecap="round" stroke-linejoin="round" stroke-miterlimit="10" cx="115.6" cy="42.2" r="4"/>
	
		<circle fill="none" stroke="#8C939C" stroke-width="1.5" stroke-linecap="round" stroke-linejoin="round" stroke-miterlimit="10" cx="142.1" cy="42.2" r="4"/>
	<path fill="none" stroke="#8C939C" stroke-width="1.5" stroke-linecap="round" stroke-linejoin="round" stroke-miterlimit="10" d="
		M116.6,52.3V55c0,1.6-1.3,2.9-2.9,2.9l0,0c-1.6,0-2.9-1.3-2.9-2.9v-2.7"/>
	<path fill="none" stroke="#8C939C" stroke-width="1.5" stroke-linecap="round" stroke-linejoin="round" stroke-miterlimit="10" d="
		M146.8,52.2V55c0,1.6-1.3,2.9-2.9,2.9l0,0c-1.6,0-2.9-1.3-2.9-2.9v-2.7"/>
	
		<line fill="none" stroke="#8C939C" stroke-width="1.5" stroke-linecap="round" stroke-linejoin="round" stroke-miterlimit="10" x1="122.8" y1="39.3" x2="134.8" y2="39.3"/>
	
		<line fill="none" stroke="#8C939C" stroke-width="1.5" stroke-linecap="round" stroke-linejoin="round" stroke-miterlimit="10" x1="122.8" y1="42.2" x2="134.8" y2="42.2"/>
	
		<line fill="none" stroke="#8C939C" stroke-width="1.5" stroke-linecap="round" stroke-linejoin="round" stroke-miterlimit="10" x1="122.8" y1="45.2" x2="134.8" y2="45.2"/>
</g>
<g>
	<path fill="none" stroke="#2FA4D6" stroke-width="1.5" stroke-linecap="round" stroke-linejoin="round" stroke-miterlimit="10" d="
		M222.2,57.3c9.9,0,16.6-6.8,15.9-18.7c-0.7-12-15.9-35.9-15.9-35.9s-15.2,23.9-15.9,35.9C205.5,50.5,212.2,57.3,222.2,57.3z"/>
	<path fill="none" stroke="#2FA4D6" stroke-width="1.5" stroke-linecap="round" stroke-linejoin="round" stroke-miterlimit="10" d="
		M223.6,52.7c0,0,5.8,1.7,9.4-4.6c3.2-5.6-0.1-10.4-0.1-10.4c0.1-0.2-0.2,4-2.2,8C228.5,50.1,223.6,52.7,223.6,52.7z"/>
</g>
<g>
	<path fill="none" stroke="#E85858" stroke-width="1.5" stroke-linecap="round" stroke-linejoin="round" stroke-miterlimit="10" d="
		M312.9,15c0,0,14.5-19.9,24.9-7.5C352.6,25.2,313,58.6,313,58.6s-39.8-33.4-25-51.1C298.4-4.9,312.9,15,312.9,15z"/>
	
		<polyline fill="none" stroke="#E85858" stroke-width="1.5" stroke-linecap="round" stroke-linejoin="round" stroke-miterlimit="10" points="
		290.2,32.5 298.6,32.5 303.7,20 303.7,39.7 309.1,27.5 309.1,45 316.4,25.1 316.4,32.5 335.9,32.5 	"/>
</g>
<g>
	<path fill="none" stroke="#2EB1B8" stroke-width="1.5" stroke-linecap="round" stroke-linejoin="round" stroke-miterlimit="10" d="
		M389.5,11.4c0,5.4,4.1,9.8,9.3,9.8s9.3-4.4,9.3-9.8c0,5.4,4.1,9.8,9.3,9.8s9.3-4.4,9.3-9.8c0,5.4,4.1,9.8,9.3,9.8
		c5.1,0,9.3-4.4,9.3-9.8"/>
	<path fill="none" stroke="#2EB1B8" stroke-width="1.5" stroke-linecap="round" stroke-linejoin="round" stroke-miterlimit="10" d="
		M389.5,29.1c0,5.4,4.1,9.8,9.3,9.8s9.3-4.4,9.3-9.8c0,5.4,4.1,9.8,9.3,9.8s9.3-4.4,9.3-9.8c0,5.4,4.1,9.8,9.3,9.8
		c5.1,0,9.3-4.4,9.3-9.8"/>
	<path fill="none" stroke="#2EB1B8" stroke-width="1.5" stroke-linecap="round" stroke-linejoin="round" stroke-miterlimit="10" d="
		M389.5,46.7c0,5.4,4.1,9.8,9.3,9.8s9.3-4.4,9.3-9.8c0,5.4,4.1,9.8,9.3,9.8s9.3-4.4,9.3-9.8c0,5.4,4.1,9.8,9.3,9.8
		c5.1,0,9.3-4.4,9.3-9.8"/>
</g>
<g>
	<path fill="#FFFFFF" d="M28.1,78.2h9.4L60,129.9H47.2l-4.5-11H22.6l-4.3,11H5.7L28.1,78.2z M32.5,93.2l-6.3,16.1h12.6L32.5,93.2z"
		/>
	<path fill="#FFFFFF" d="M133.7,126.3c-3.4,1.8-6.9,3-10.5,3.8c-3.7,0.8-7.4,1.2-11.2,1.2c-4,0-7.8-0.6-11.2-1.9
		c-3.4-1.3-6.4-3.1-8.8-5.4c-2.5-2.4-4.4-5.2-5.8-8.6s-2.1-7.1-2.1-11.3c0-4.1,0.7-7.9,2.1-11.3s3.3-6.2,5.8-8.6
		c2.5-2.4,5.4-4.2,8.8-5.4c3.4-1.3,7.1-1.9,11.2-1.9c4.1,0,8,0.5,11.4,1.5c3.5,1,6.5,2.7,9.2,5.2l-8,8.8c-1.6-1.6-3.3-2.8-5.3-3.7
		c-1.9-0.8-4.4-1.2-7.3-1.2c-2.4,0-4.6,0.4-6.6,1.2c-2,0.8-3.7,2-5.1,3.5c-1.4,1.5-2.5,3.3-3.3,5.3c-0.8,2-1.1,4.3-1.1,6.7
		c0,2.4,0.4,4.7,1.1,6.7c0.8,2,1.8,3.8,3.3,5.3s3.1,2.6,5.1,3.5c2,0.8,4.2,1.2,6.6,1.2c2.5,0,4.6-0.3,6.4-0.8s3.2-1.1,4.3-1.7v-8.4
		h-9.3V99.2h20.2V126.3z"/>
	<path fill="#FFFFFF" d="M141.8,94.4h11v5.7h0.1c1.2-2.2,2.6-3.8,4.2-4.9c1.6-1.1,3.6-1.6,6.1-1.6c0.6,0,1.3,0,1.9,0.1
		c0.6,0,1.2,0.1,1.8,0.3v10c-0.8-0.2-1.5-0.4-2.3-0.5c-0.8-0.1-1.5-0.2-2.4-0.2c-2.1,0-3.8,0.3-5,0.9c-1.2,0.6-2.2,1.4-2.8,2.4
		c-0.7,1-1.1,2.3-1.3,3.8c-0.2,1.5-0.3,3.1-0.3,4.8v14.8h-11V94.4z"/>
	<path fill="#FFFFFF" d="M204,123.8c-1.8,2.2-4,4-6.7,5.2c-2.7,1.2-5.5,1.8-8.3,1.8c-2.7,0-5.3-0.4-7.7-1.3s-4.5-2.1-6.3-3.8
		c-1.8-1.6-3.2-3.6-4.2-5.9c-1-2.3-1.5-4.8-1.5-7.7c0-2.8,0.5-5.4,1.5-7.7c1-2.3,2.4-4.3,4.2-5.9c1.8-1.6,3.9-2.9,6.3-3.8
		c2.4-0.9,5-1.3,7.7-1.3c2.5,0,4.8,0.4,6.9,1.3c2.1,0.9,3.8,2.1,5.3,3.8c1.4,1.6,2.5,3.6,3.3,5.9c0.8,2.3,1.2,4.8,1.2,7.7v3.4h-25.4
		c0.4,2.1,1.4,3.8,2.9,5s3.3,1.9,5.4,1.9c1.8,0,3.3-0.4,4.6-1.2c1.2-0.8,2.3-1.8,3.3-3.1L204,123.8z M194.7,108.2
		c0-1.9-0.6-3.4-1.8-4.8c-1.3-1.3-2.9-2-4.9-2c-1.2,0-2.3,0.2-3.2,0.6c-0.9,0.4-1.7,0.9-2.4,1.5c-0.7,0.6-1.2,1.3-1.5,2.1
		s-0.6,1.6-0.6,2.5H194.7z"/>
	<path fill="#FFFFFF" d="M233.3,125.5h-0.1c-1.2,1.9-2.8,3.3-4.9,4.1c-2,0.8-4.2,1.2-6.4,1.2c-1.7,0-3.3-0.2-4.8-0.7
		c-1.5-0.5-2.9-1.2-4.1-2.1c-1.2-0.9-2.1-2.1-2.8-3.4c-0.7-1.4-1-2.9-1-4.8c0-2,0.4-3.8,1.1-5.2c0.8-1.4,1.8-2.6,3.1-3.5
		c1.3-0.9,2.8-1.6,4.4-2.2c1.7-0.5,3.4-0.9,5.2-1.1c1.8-0.2,3.6-0.4,5.3-0.4c1.8,0,3.4-0.1,4.9-0.1c0-1.9-0.7-3.5-2.1-4.6
		c-1.4-1.1-3-1.7-4.9-1.7c-1.8,0-3.4,0.4-4.9,1.1c-1.5,0.8-2.8,1.8-4,3.1l-5.8-6c2-1.9,4.4-3.3,7.2-4.3c2.7-1,5.6-1.4,8.5-1.4
		c3.2,0,5.9,0.4,7.9,1.2c2.1,0.8,3.7,2,5,3.5c1.2,1.6,2.1,3.5,2.6,5.7c0.5,2.3,0.7,4.9,0.7,7.9v18.1h-10.1V125.5z M230.6,114.4
		c-0.8,0-1.9,0-3.1,0.1c-1.2,0.1-2.4,0.3-3.6,0.6c-1.1,0.3-2.1,0.9-2.9,1.5c-0.8,0.7-1.2,1.6-1.2,2.9c0,1.3,0.6,2.3,1.7,2.9
		c1.1,0.6,2.3,1,3.5,1c1.1,0,2.1-0.1,3.1-0.4c1-0.3,1.9-0.7,2.7-1.2c0.8-0.5,1.4-1.2,1.9-2c0.5-0.8,0.7-1.8,0.7-2.9v-2.3H230.6z"/>
	<path fill="#FFFFFF" d="M273.7,103.2h-9.6V115c0,1,0,1.9,0.1,2.7c0.1,0.8,0.3,1.5,0.7,2.1s0.9,1,1.6,1.4c0.7,0.3,1.6,0.5,2.8,0.5
		c0.6,0,1.4-0.1,2.3-0.2c1-0.1,1.7-0.4,2.2-0.8v9.1c-1.2,0.4-2.5,0.7-3.8,0.9c-1.3,0.1-2.6,0.2-3.9,0.2c-1.9,0-3.6-0.2-5.1-0.6
		c-1.6-0.4-2.9-1-4.1-1.9c-1.2-0.9-2.1-2-2.7-3.3c-0.7-1.4-1-3-1-5v-16.9h-7v-8.8h7V83.9h11v10.5h9.6V103.2z"/>
	<path fill="#FFFFFF" d="M311.8,123.8c-1.8,2.2-4,4-6.7,5.2c-2.7,1.2-5.5,1.8-8.3,1.8c-2.7,0-5.3-0.4-7.7-1.3s-4.5-2.1-6.3-3.8
		c-1.8-1.6-3.2-3.6-4.2-5.9c-1-2.3-1.5-4.8-1.5-7.7c0-2.8,0.5-5.4,1.5-7.7c1-2.3,2.4-4.3,4.2-5.9c1.8-1.6,3.9-2.9,6.3-3.8
		c2.4-0.9,5-1.3,7.7-1.3c2.5,0,4.8,0.4,6.9,1.3c2.1,0.9,3.8,2.1,5.3,3.8c1.4,1.6,2.5,3.6,3.3,5.9c0.8,2.3,1.2,4.8,1.2,7.7v3.4H288
		c0.4,2.1,1.4,3.8,2.9,5s3.3,1.9,5.4,1.9c1.8,0,3.3-0.4,4.6-1.2c1.2-0.8,2.3-1.8,3.3-3.1L311.8,123.8z M302.5,108.2
		c0-1.9-0.6-3.4-1.8-4.8c-1.3-1.3-2.9-2-4.9-2c-1.2,0-2.3,0.2-3.2,0.6c-0.9,0.4-1.7,0.9-2.4,1.5c-0.7,0.6-1.2,1.3-1.5,2.1
		s-0.6,1.6-0.6,2.5H302.5z"/>
	<path fill="#FFFFFF" d="M319.4,94.4h11v5.7h0.1c1.2-2.2,2.6-3.8,4.2-4.9c1.6-1.1,3.6-1.6,6.1-1.6c0.6,0,1.3,0,1.9,0.1
		c0.6,0,1.2,0.1,1.8,0.3v10c-0.8-0.2-1.5-0.4-2.3-0.5c-0.8-0.1-1.5-0.2-2.4-0.2c-2.1,0-3.8,0.3-5,0.9c-1.2,0.6-2.2,1.4-2.8,2.4
		c-0.7,1-1.1,2.3-1.3,3.8c-0.2,1.5-0.3,3.1-0.3,4.8v14.8h-11V94.4z"/>
	<path fill="#FFFFFF" d="M372.6,78.2H384v41.2h21.1v10.5h-32.5V78.2z"/>
	<path fill="#FFFFFF" d="M431.2,78.2h9.4l22.5,51.7h-12.9l-4.5-11h-20.1l-4.3,11h-12.6L431.2,78.2z M435.6,93.2l-6.3,16.1h12.6
		L435.6,93.2z"/>
</g>
<g>
	<path fill="#FFFFFF" d="M20.2,180.2c-0.3,0.5-0.8,1-1.3,1.5c-0.5,0.5-1.1,0.9-1.7,1.2c-0.7,0.3-1.4,0.6-2.1,0.8
		c-0.8,0.2-1.6,0.3-2.4,0.3c-1.5,0-2.9-0.3-4.2-0.8c-1.3-0.5-2.4-1.3-3.4-2.2s-1.7-2.1-2.2-3.4c-0.5-1.3-0.8-2.7-0.8-4.3
		s0.3-3,0.8-4.3c0.5-1.3,1.3-2.4,2.2-3.4s2.1-1.7,3.4-2.2c1.3-0.5,2.7-0.8,4.2-0.8c1.3,0,2.5,0.3,3.8,0.8c1.3,0.5,2.4,1.3,3.3,2.5
		l-1.8,1.4c-0.2-0.3-0.5-0.7-0.9-1c-0.4-0.3-0.8-0.6-1.3-0.9s-1-0.5-1.5-0.6c-0.5-0.2-1.1-0.2-1.6-0.2c-1.3,0-2.5,0.2-3.5,0.7
		c-1,0.5-1.9,1.1-2.6,1.9c-0.7,0.8-1.3,1.7-1.7,2.8c-0.4,1.1-0.6,2.2-0.6,3.4s0.2,2.3,0.6,3.4c0.4,1.1,0.9,2,1.7,2.8
		c0.7,0.8,1.6,1.5,2.6,1.9c1,0.5,2.2,0.7,3.5,0.7c0.5,0,1.1,0,1.6-0.1c0.5-0.1,1-0.3,1.6-0.5c0.5-0.2,1-0.5,1.4-0.9s0.9-0.9,1.3-1.5
		L20.2,180.2z"/>
	<path fill="#FFFFFF" d="M27.3,181.5h9.5v1.9H25.2v-20.4h2.1V181.5z"/>
	<path fill="#FFFFFF" d="M43.1,183.4h-2.1v-20.4h2.1V183.4z"/>
	<path fill="#FFFFFF" d="M60.2,179.6l6.9-16.6h3.2v20.4h-2.1v-17.7h-0.1l-7.4,17.7h-1.1l-7.4-17.7h-0.1v17.7h-2.1v-20.4h3.2
		L60.2,179.6z"/>
	<path fill="#FFFFFF" d="M76.9,183.4h-2.4l8.9-20.4h2l8.9,20.4h-2.4l-2.3-5.4H79.2L76.9,183.4z M80,176.1h8.9l-4.4-10.7L80,176.1z"
		/>
	<path fill="#FFFFFF" d="M103.1,183.4h-2.1v-18.5h-6.8v-1.9H110v1.9h-6.8V183.4z"/>
	<path fill="#FFFFFF" d="M116.7,181.5h10.9v1.9h-13v-20.4h12.7v1.9h-10.6v7h9.9v1.9h-9.9V181.5z"/>
	<path fill="#FFFFFF" d="M142.3,183.4h-2.4l8.9-20.4h2l8.9,20.4h-2.4L155,178h-10.5L142.3,183.4z M145.3,176.1h8.9l-4.4-10.7
		L145.3,176.1z"/>
	<path fill="#FFFFFF" d="M180.7,180.2c-0.3,0.5-0.8,1-1.3,1.5c-0.5,0.5-1.1,0.9-1.7,1.2c-0.7,0.3-1.4,0.6-2.1,0.8
		c-0.8,0.2-1.6,0.3-2.4,0.3c-1.5,0-2.9-0.3-4.2-0.8c-1.3-0.5-2.4-1.3-3.4-2.2s-1.7-2.1-2.2-3.4c-0.5-1.3-0.8-2.7-0.8-4.3
		s0.3-3,0.8-4.3c0.5-1.3,1.3-2.4,2.2-3.4s2.1-1.7,3.4-2.2c1.3-0.5,2.7-0.8,4.2-0.8c1.3,0,2.5,0.3,3.8,0.8c1.3,0.5,2.4,1.3,3.3,2.5
		l-1.8,1.4c-0.2-0.3-0.5-0.7-0.9-1c-0.4-0.3-0.8-0.6-1.3-0.9s-1-0.5-1.5-0.6c-0.5-0.2-1.1-0.2-1.6-0.2c-1.3,0-2.5,0.2-3.5,0.7
		c-1,0.5-1.9,1.1-2.6,1.9c-0.7,0.8-1.3,1.7-1.7,2.8c-0.4,1.1-0.6,2.2-0.6,3.4s0.2,2.3,0.6,3.4c0.4,1.1,0.9,2,1.7,2.8
		c0.7,0.8,1.6,1.5,2.6,1.9c1,0.5,2.2,0.7,3.5,0.7c0.5,0,1.1,0,1.6-0.1c0.5-0.1,1-0.3,1.6-0.5c0.5-0.2,1-0.5,1.4-0.9s0.9-0.9,1.3-1.5
		L180.7,180.2z"/>
	<path fill="#FFFFFF" d="M192.2,183.4h-2.1v-18.5h-6.8v-1.9h15.8v1.9h-6.8V183.4z"/>
	<path fill="#FFFFFF" d="M205.8,183.4h-2.1v-20.4h2.1V183.4z"/>
	<path fill="#FFFFFF" d="M232.7,173.2c0,1.6-0.3,3-0.8,4.3c-0.5,1.3-1.3,2.4-2.2,3.4s-2.1,1.7-3.4,2.2c-1.3,0.5-2.7,0.8-4.2,0.8
		c-1.5,0-2.9-0.3-4.2-0.8c-1.3-0.5-2.4-1.3-3.4-2.2s-1.7-2.1-2.2-3.4c-0.5-1.3-0.8-2.7-0.8-4.3s0.3-3,0.8-4.3
		c0.5-1.3,1.3-2.4,2.2-3.4s2.1-1.7,3.4-2.2c1.3-0.5,2.7-0.8,4.2-0.8c1.5,0,2.9,0.3,4.2,0.8c1.3,0.5,2.4,1.3,3.4,2.2s1.7,2.1,2.2,3.4
		C232.4,170.2,232.7,171.6,232.7,173.2z M230.4,173.2c0-1.2-0.2-2.3-0.6-3.4c-0.4-1.1-0.9-2-1.7-2.8c-0.7-0.8-1.6-1.5-2.6-1.9
		c-1-0.5-2.2-0.7-3.5-0.7s-2.5,0.2-3.5,0.7c-1,0.5-1.9,1.1-2.6,1.9c-0.7,0.8-1.3,1.7-1.7,2.8c-0.4,1.1-0.6,2.2-0.6,3.4
		s0.2,2.3,0.6,3.4c0.4,1.1,0.9,2,1.7,2.8c0.7,0.8,1.6,1.5,2.6,1.9c1,0.5,2.2,0.7,3.5,0.7s2.5-0.2,3.5-0.7c1-0.5,1.9-1.1,2.6-1.9
		c0.7-0.8,1.3-1.7,1.7-2.8C230.2,175.5,230.4,174.3,230.4,173.2z"/>
	<path fill="#FFFFFF" d="M253.1,180.3L253.1,180.3l0.1-17.3h2.1v20.4h-2.6l-12.2-17.5h-0.1v17.5h-2.1v-20.4h2.6L253.1,180.3z"/>
	<path fill="#FFFFFF" d="M273.8,183.4h-2.1v-20.4H284v1.9h-10.3v7h9.5v1.9h-9.5V183.4z"/>
	<path fill="#FFFFFF" d="M291.3,183.4h-2.1v-20.4h6.3c2.1,0,3.7,0.5,4.9,1.4c1.2,0.9,1.8,2.3,1.8,4.1c0,1.4-0.4,2.6-1.3,3.6
		c-0.9,1-2.2,1.5-3.9,1.7l5.9,9.7h-2.5l-5.6-9.5h-3.5V183.4z M291.3,172h3.7c0.9,0,1.7-0.1,2.4-0.3c0.6-0.2,1.2-0.4,1.5-0.8
		c0.4-0.3,0.7-0.7,0.8-1.1c0.2-0.4,0.3-0.9,0.3-1.4c0-0.5-0.1-0.9-0.3-1.4c-0.2-0.4-0.5-0.8-0.8-1.1c-0.4-0.3-0.9-0.6-1.5-0.8
		c-0.6-0.2-1.4-0.3-2.4-0.3h-3.7V172z"/>
	<path fill="#FFFFFF" d="M307.4,183.4H305l8.9-20.4h2l8.9,20.4h-2.4l-2.3-5.4h-10.5L307.4,183.4z M310.4,176.1h8.9l-4.4-10.7
		L310.4,176.1z"/>
	<path fill="#FFFFFF" d="M339.1,179.6l6.9-16.6h3.2v20.4h-2.1v-17.7H347l-7.4,17.7h-1.1l-7.4-17.7h-0.1v17.7H329v-20.4h3.2
		L339.1,179.6z"/>
	<path fill="#FFFFFF" d="M358.2,181.5h10.9v1.9h-13v-20.4h12.7v1.9h-10.6v7h9.9v1.9h-9.9V181.5z"/>
	<path fill="#FFFFFF" d="M379.2,180.4L379.2,180.4l5.2-17.5h2.5l5.1,17.5h0.1l4.9-17.5h2.3l-6,20.4h-2.4l-5.1-17.5h-0.1l-5.1,17.5
		H378l-6-20.4h2.3L379.2,180.4z"/>
	<path fill="#FFFFFF" d="M423.4,173.2c0,1.6-0.3,3-0.8,4.3c-0.5,1.3-1.3,2.4-2.2,3.4s-2.1,1.7-3.4,2.2c-1.3,0.5-2.7,0.8-4.2,0.8
		c-1.5,0-2.9-0.3-4.2-0.8c-1.3-0.5-2.4-1.3-3.4-2.2s-1.7-2.1-2.2-3.4c-0.5-1.3-0.8-2.7-0.8-4.3s0.3-3,0.8-4.3
		c0.5-1.3,1.3-2.4,2.2-3.4s2.1-1.7,3.4-2.2c1.3-0.5,2.7-0.8,4.2-0.8c1.5,0,2.9,0.3,4.2,0.8c1.3,0.5,2.4,1.3,3.4,2.2s1.7,2.1,2.2,3.4
		C423.1,170.2,423.4,171.6,423.4,173.2z M421.1,173.2c0-1.2-0.2-2.3-0.6-3.4c-0.4-1.1-0.9-2-1.7-2.8c-0.7-0.8-1.6-1.5-2.6-1.9
		c-1-0.5-2.2-0.7-3.5-0.7s-2.5,0.2-3.5,0.7c-1,0.5-1.9,1.1-2.6,1.9c-0.7,0.8-1.3,1.7-1.7,2.8c-0.4,1.1-0.6,2.2-0.6,3.4
		s0.2,2.3,0.6,3.4c0.4,1.1,0.9,2,1.7,2.8c0.7,0.8,1.6,1.5,2.6,1.9c1,0.5,2.2,0.7,3.5,0.7s2.5-0.2,3.5-0.7c1-0.5,1.9-1.1,2.6-1.9
		c0.7-0.8,1.3-1.7,1.7-2.8C420.9,175.5,421.1,174.3,421.1,173.2z"/>
	<path fill="#FFFFFF" d="M431,183.4H429v-20.4h6.3c2.1,0,3.7,0.5,4.9,1.4c1.2,0.9,1.8,2.3,1.8,4.1c0,1.4-0.4,2.6-1.3,3.6
		c-0.9,1-2.2,1.5-3.9,1.7l5.9,9.7h-2.5l-5.6-9.5H431V183.4z M431,172h3.7c0.9,0,1.7-0.1,2.4-0.3c0.6-0.2,1.2-0.4,1.5-0.8
		c0.4-0.3,0.7-0.7,0.8-1.1c0.2-0.4,0.3-0.9,0.3-1.4c0-0.5-0.1-0.9-0.3-1.4c-0.2-0.4-0.5-0.8-0.8-1.1c-0.4-0.3-0.9-0.6-1.5-0.8
		c-0.6-0.2-1.4-0.3-2.4-0.3H431V172z"/>
	<path fill="#FFFFFF" d="M449.6,171.8L449.6,171.8h0.3l9.6-8.9h3l-10.3,9.3l10.9,11.2H460L450,172.8h-0.3h0v10.5h-2.1v-20.4h2.1
		V171.8z"/>
</g>
<rect x="-1229" y="-472.8" fill="#2FA4D6" width="572.4" height="76.7"/>
<rect x="-447.3" y="-472.8" fill="#E85858" width="572.8" height="76.7"/>
<rect x="346" y="-472.8" fill="#F7AE2D" width="572.8" height="76.7"/>
<rect x="1129.7" y="-472.8" fill="#8C939C" width="572.8" height="76.7"/>
</svg>
