<svg id="Layer_1" data-name="Layer 1" xmlns="http://www.w3.org/2000/svg" viewBox="0 0 49.9707 63.59802"><defs><style>.cls-1{fill:#2fb0b6;}</style></defs><title>download-button-ocean-and-coastal-resources</title><rect class="cls-1" x="22.82951" y="48.56879" width="3.71092" height="10.14318"/><polygon class="cls-1" points="20.609 57.817 29.362 57.817 24.985 62.193 20.609 57.817"/><rect class="cls-1" x="17.31613" y="62.73214" width="15.33847" height="0.86588"/><path class="cls-1" d="M584.03123,1741.07581h-0.87451c-0.03613-.01953-3.72412-2.02344-11.834-3.85156-8.2915-1.86816-11.979-3.81055-12.13184-3.89258l-0.31445-.168v-30.58984l0.91748,0.5918c0.0376,0.02344,3.833,2.4209,11.73145,3.37891,8.11719,0.98438,12.06641,3.45313,12.231,3.55859l0.2749,0.1748v30.79785Zm-23.96533-8.63867a57.6423,57.6423,0,0,0,11.51855,3.627,61.93711,61.93711,0,0,1,11.25732,3.47656v-28.59277a32.68619,32.68619,0,0,0-11.46-3.22363,34.95941,34.95941,0,0,1-11.31592-3.05371v27.7666Z" transform="translate(-558.87645 -1702.57386)"/><polygon class="cls-1" points="49.971 38.502 24.56 38.502 24.56 37.313 48.781 37.313 48.781 8.625 24.56 8.625 24.56 7.436 49.971 7.436 49.971 38.502"/><rect class="cls-1" x="28.32764" y="13.16895" width="17.31641" height="1.18945"/><rect class="cls-1" x="28.32764" y="16.89648" width="17.31641" height="1.18945"/><rect class="cls-1" x="28.32764" y="20.62402" width="17.31641" height="1.18945"/><rect class="cls-1" x="28.32764" y="24.35156" width="17.31641" height="1.18945"/><rect class="cls-1" x="28.32764" y="28.0791" width="17.31641" height="1.18945"/><rect class="cls-1" x="28.32764" y="31.80664" width="17.31641" height="1.18945"/></svg>