<svg id="Layer_1" data-name="Layer 1" xmlns="http://www.w3.org/2000/svg" viewBox="0 0 64.25519 72.44005"><defs><style>.cls-1{fill:#f5ad2b;}.cls-2{fill:#2fb0b6;}.cls-3{fill:none;}.cls-4{fill:#8b929b;}.cls-5{fill:#31a3d5;}.cls-6{fill:#fff;}.cls-7{fill:#e75858;}</style></defs><title>download-button-full</title><path class="cls-1" d="M331.83479,981.06891v38.38693s4.83961,2.58752,15.78358,5.05374,15.78358,5.05374,15.78358,5.05374V990.20865s-5.145-3.2799-15.78358-4.56987C336.86914,984.33539,331.83479,981.06891,331.83479,981.06891Z" transform="translate(-331.83479 -981.00331)"/><polyline class="cls-2" points="31.567 9.205 64.255 9.205 64.255 48.56 31.567 48.56"/><polyline class="cls-3" points="31.462 9.205 31.567 9.205 31.567 48.56 31.567 48.56"/><path class="cls-4" d="M334.616,981.00331v38.38693s4.41322,2.58752,14.393,5.05374,14.393,5.05374,14.393,5.05374V990.14306s-4.69172-3.2799-14.393-4.56987C339.20678,984.2698,334.616,981.00331,334.616,981.00331Z" transform="translate(-331.83479 -981.00331)"/><path class="cls-5" d="M337.032,981.06891v38.38693s4.04281,2.58752,13.185,5.05374,13.185,5.05374,13.185,5.05374V990.20865s-4.29793-3.2799-13.185-4.56987C341.23752,984.33539,337.032,981.06891,337.032,981.06891Z" transform="translate(-331.83479 -981.00331)"/><rect class="cls-6" x="36.53043" y="15.97387" width="22.80859" height="1.56641"/><rect class="cls-6" x="36.53043" y="20.88402" width="22.80859" height="1.56641"/><rect class="cls-6" x="36.53043" y="25.79418" width="22.80859" height="1.56641"/><rect class="cls-6" x="36.53043" y="30.70433" width="22.80859" height="1.56641"/><rect class="cls-6" x="36.53043" y="35.61449" width="22.80859" height="1.56641"/><rect class="cls-6" x="36.53043" y="40.52465" width="22.80859" height="1.56641"/><path class="cls-7" d="M339.75419,981.06891v38.38693s3.62547,2.58752,11.82388,5.05374,11.82388,5.05374,11.82388,5.05374V990.20865s-3.85426-3.2799-11.82388-4.56987C343.52554,984.33539,339.75419,981.06891,339.75419,981.06891Z" transform="translate(-331.83479 -981.00331)"/><rect class="cls-6" x="29.97174" y="57.41082" width="3.71092" height="10.14318"/><polygon class="cls-6" points="27.751 66.659 36.504 66.659 32.128 71.035 27.751 66.659"/><rect class="cls-6" x="24.45836" y="71.57417" width="15.33847" height="0.86588"/></svg>