<svg id="Layer_1" data-name="Layer 1" xmlns="http://www.w3.org/2000/svg" viewBox="0 0 92.09 92.09"><defs><style>.cls-1,.cls-2{fill:none;stroke:#fff;}.cls-1{stroke-miterlimit:10;stroke-width:2px;}.cls-2{stroke-linecap:round;stroke-linejoin:round;stroke-width:1.5px;}</style></defs><title>logo-transportation</title><circle class="cls-1" cx="46.04" cy="46.04" r="45.04"/><rect class="cls-2" x="24.04" y="19.12" width="44" height="49.94" rx="4.34" ry="4.34"/><rect class="cls-2" x="28.79" y="30.05" width="34.5" height="20" rx="4.36" ry="4.36"/><rect class="cls-2" x="40.04" y="22.55" width="12" height="4" rx="1.98" ry="1.98"/><path class="cls-2" d="M5026.46,76h2.66V66h-2.66a1.34,1.34,0,0,0-1.34,1.34v7.33A1.34,1.34,0,0,0,5026.46,76Z" transform="translate(-5005.08 -35.98)"/><path class="cls-2" d="M5075.78,66h-2.66V76h2.66a1.34,1.34,0,0,0,1.34-1.34V67.36A1.34,1.34,0,0,0,5075.78,66Z" transform="translate(-5005.08 -35.98)"/><circle class="cls-2" cx="32.79" cy="59.3" r="4"/><circle class="cls-2" cx="59.29" cy="59.3" r="4"/><path class="cls-2" d="M5038.87,105.34v2.73a2.87,2.87,0,0,1-2.87,2.88h0a2.88,2.88,0,0,1-2.87-2.87v-2.73" transform="translate(-5005.08 -35.98)"/><path class="cls-2" d="M5069.12,105.28V108a2.87,2.87,0,0,1-2.87,2.88h0a2.88,2.88,0,0,1-2.87-2.87v-2.73" transform="translate(-5005.08 -35.98)"/><line class="cls-2" x1="40.04" y1="56.34" x2="52.04" y2="56.34"/><line class="cls-2" x1="40.04" y1="59.3" x2="52.04" y2="59.3"/><line class="cls-2" x1="40.04" y1="62.25" x2="52.04" y2="62.25"/></svg>