<svg id="Layer_1" data-name="Layer 1" xmlns="http://www.w3.org/2000/svg" viewBox="0 0 44.10096 84.12251"><defs><style>.cls-1{fill:none;stroke:#f7ae2d;stroke-linecap:round;stroke-linejoin:round;stroke-width:2.21773px;}</style></defs><title>logo-color-energy</title><path class="cls-1" d="M6771.0509,202.52059c3.16319,0,6.15284-.74107,7.49929-2.221,2.69422-2.96138,3.13931-12.181,4.593-24.43319s8.85216-14.98866,8.79813-27.86622c-0.04882-11.635-6.968-23.54032-20.94132-23.54032s-20.8925,11.90536-20.94132,23.54032c-0.054,12.87756,7.34444,15.614,8.79813,27.86622s1.89878,21.47181,4.593,24.43319C6764.79626,201.77952,6767.88771,202.52059,6771.0509,202.52059Z" transform="translate(-6748.94952 -123.35095)"/><line class="cls-1" x1="10.36632" y1="55.71235" x2="33.73464" y2="55.71235"/><line class="cls-1" x1="11.06938" y1="61.92175" x2="25.9654" y2="61.92175"/><line class="cls-1" x1="11.75837" y1="68.19283" x2="18.51739" y2="68.19283"/><line class="cls-1" x1="13.045" y1="74.12218" x2="21.05852" y2="74.12218"/><path class="cls-1" d="M6767.156,202.52059a3.844,3.844,0,0,0,7.688,0" transform="translate(-6748.94952 -123.35095)"/><path class="cls-1" d="M6768.50512,179.0633s1.28766-32.84724-4.14271-30.86881c-3.94977,1.439.05206,6.79276,6.68384,6.79276s10.4512-5.32139,6.6486-6.89218c-5.538-2.28763-4.49064,30.96823-4.49064,30.96823" transform="translate(-6748.94952 -123.35095)"/></svg>