<?xml version="1.0" encoding="utf-8"?>
<!-- Generator: Adobe Illustrator 19.2.1, SVG Export Plug-In . SVG Version: 6.00 Build 0)  -->
<svg version="1.1" id="Layer_1" xmlns="http://www.w3.org/2000/svg" xmlns:xlink="http://www.w3.org/1999/xlink" x="0px" y="0px"
	 viewBox="0 0 92.0899963 92.0899963" style="enable-background:new 0 0 92.0899963 92.0899963;" xml:space="preserve">
<style type="text/css">
	.st0{fill:none;stroke:#FFFFFF;stroke-width:2;stroke-miterlimit:10;}
	.st1{fill:#FFFFFF;}
</style>
<title>logo-ocean-and-coastal-resources</title>
<g>
	<g>
		<circle class="st0" cx="46.0449982" cy="46.0449982" r="45.0438271"/>
	</g>
	<g>
		<path class="st1" d="M63.9674683,34.9490318c-4.171875,0-7.7568359-2.7128906-9.2558594-6.5566406
			c-1.4990234,3.84375-5.0839844,6.5566406-9.2558594,6.5566406s-7.7568359-2.7128906-9.2558594-6.5566406
			c-1.4990234,3.84375-5.0839844,6.5566406-9.2558594,6.5566406c-5.5175781,0-10.0058594-4.7431641-10.0058594-10.5732422
			c0-0.4140625,0.3359375-0.75,0.75-0.75s0.75,0.3359375,0.75,0.75c0,5.0029297,3.8154297,9.0732422,8.5058594,9.0732422
			s8.5058594-4.0703125,8.5058594-9.0732422c0-0.4140625,0.3359375-0.75,0.75-0.75s0.75,0.3359375,0.75,0.75
			c0,5.0029297,3.8154297,9.0732422,8.5058594,9.0732422s8.5058594-4.0703125,8.5058594-9.0732422
			c0-0.4140625,0.3359375-0.75,0.75-0.75s0.75,0.3359375,0.75,0.75c0,5.0029297,3.8154297,9.0732422,8.5058594,9.0732422
			s8.5058594-4.0703125,8.5058594-9.0732422c0-0.4140625,0.3359375-0.75,0.75-0.75s0.75,0.3359375,0.75,0.75
			C73.9733276,30.2058678,69.4850464,34.9490318,63.9674683,34.9490318z"/>
	</g>
	<g>
		<path class="st1" d="M63.9674683,52.5940514c-4.171875,0-7.7568359-2.7128906-9.2558594-6.5566406
			c-1.4990234,3.84375-5.0839844,6.5566406-9.2558594,6.5566406s-7.7568359-2.7128906-9.2558594-6.5566406
			c-1.4990234,3.84375-5.0839844,6.5566406-9.2558594,6.5566406c-5.5175781,0-10.0058594-4.7431641-10.0058594-10.5737305
			c0-0.4140625,0.3359375-0.75,0.75-0.75s0.75,0.3359375,0.75,0.75c0,5.003418,3.8154297,9.0737305,8.5058594,9.0737305
			s8.5058594-4.0703125,8.5058594-9.0737305c0-0.4140625,0.3359375-0.75,0.75-0.75s0.75,0.3359375,0.75,0.75
			c0,5.003418,3.8154297,9.0737305,8.5058594,9.0737305s8.5058594-4.0703125,8.5058594-9.0737305
			c0-0.4140625,0.3359375-0.75,0.75-0.75s0.75,0.3359375,0.75,0.75c0,5.003418,3.8154297,9.0737305,8.5058594,9.0737305
			s8.5058594-4.0703125,8.5058594-9.0737305c0-0.4140625,0.3359375-0.75,0.75-0.75s0.75,0.3359375,0.75,0.75
			C73.9733276,47.8508873,69.4850464,52.5940514,63.9674683,52.5940514z"/>
	</g>
	<g>
		<path class="st1" d="M63.9674683,70.2385788c-4.171875,0-7.7568359-2.7128906-9.2558594-6.5566368
			c-1.4990234,3.8437462-5.0839844,6.5566368-9.2558594,6.5566368s-7.7568359-2.7128906-9.2558594-6.5566368
			c-1.4990234,3.8437462-5.0839844,6.5566368-9.2558594,6.5566368c-5.5175781,0-10.0058594-4.7431641-10.0058594-10.5732384
			c0-0.4140625,0.3359375-0.75,0.75-0.75s0.75,0.3359375,0.75,0.75c0,5.0029259,3.8154297,9.0732384,8.5058594,9.0732384
			s8.5058594-4.0703125,8.5058594-9.0732384c0-0.4140625,0.3359375-0.75,0.75-0.75s0.75,0.3359375,0.75,0.75
			c0,5.0029259,3.8154297,9.0732384,8.5058594,9.0732384s8.5058594-4.0703125,8.5058594-9.0732384
			c0-0.4140625,0.3359375-0.75,0.75-0.75s0.75,0.3359375,0.75,0.75c0,5.0029259,3.8154297,9.0732384,8.5058594,9.0732384
			s8.5058594-4.0703125,8.5058594-9.0732384c0-0.4140625,0.3359375-0.75,0.75-0.75s0.75,0.3359375,0.75,0.75
			C73.9733276,65.4954147,69.4850464,70.2385788,63.9674683,70.2385788z"/>
	</g>
</g>
</svg>
