<svg id="Layer_1" data-name="Layer 1" xmlns="http://www.w3.org/2000/svg" viewBox="0 0 79.09894 84.77665"><defs><style>.cls-1{fill:none;stroke:#8c939c;stroke-linecap:round;stroke-linejoin:round;stroke-width:2.21773px;}</style></defs><title>logo-color-transportation</title><rect class="cls-1" x="7.0228" y="1.10886" width="65.05334" height="73.83296" rx="6.41476" ry="6.41476"/><rect class="cls-1" x="14.04561" y="17.25675" width="51.00773" height="29.5697" rx="6.4496" ry="6.4496"/><rect class="cls-1" x="30.67856" y="6.16811" width="17.74182" height="5.91394" rx="2.9274" ry="2.9274"/><path class="cls-1" d="M6893.53848,155.06548h3.93751V140.28063h-3.93751a1.97643,1.97643,0,0,0-1.97643,1.97643v10.832A1.97643,1.97643,0,0,0,6893.53848,155.06548Z" transform="translate(-6890.45319 -123.02389)"/><path class="cls-1" d="M6966.46684,140.28063h-3.93751v14.78485h3.93751a1.97643,1.97643,0,0,0,1.97643-1.97643v-10.832A1.97643,1.97643,0,0,0,6966.46684,140.28063Z" transform="translate(-6890.45319 -123.02389)"/><circle class="cls-1" cx="19.95955" cy="60.50243" r="5.91394"/><circle class="cls-1" cx="59.1394" cy="60.50243" r="5.91394"/><path class="cls-1" d="M6911.89122,198.39937V202.441a4.25064,4.25064,0,0,1-4.25064,4.25064h0a4.25064,4.25064,0,0,1-4.25064-4.25064v-4.04167" transform="translate(-6890.45319 -123.02389)"/><path class="cls-1" d="M6956.61539,198.3167v4.04167a4.25064,4.25064,0,0,1-4.25064,4.25064h0a4.25064,4.25064,0,0,1-4.25064-4.25064V198.3167" transform="translate(-6890.45319 -123.02389)"/><line class="cls-1" x1="30.67856" y1="56.131" x2="48.42038" y2="56.131"/><line class="cls-1" x1="30.67856" y1="60.50243" x2="48.42038" y2="60.50243"/><line class="cls-1" x1="30.67856" y1="64.87386" x2="48.42038" y2="64.87386"/></svg>