<svg id="Layer_1" data-name="Layer 1" xmlns="http://www.w3.org/2000/svg" viewBox="0 0 92.09 92.09"><defs><style>.cls-1,.cls-2{fill:none;stroke:#fff;}.cls-1{stroke-miterlimit:10;stroke-width:2px;}.cls-2{stroke-linecap:round;stroke-linejoin:round;stroke-width:1.5px;}</style></defs><title>logo-energy</title><circle class="cls-1" cx="46.04" cy="46.04" r="45.04"/><path class="cls-2" d="M3406.5,107.12c2.14,0,4.16-.5,5.07-1.5,1.82-2,2.12-8.24,3.11-16.53s6-10.14,6-18.85c0-7.87-4.71-15.92-14.16-15.92s-14.13,8.05-14.16,15.92c0,8.71,5,10.56,6,18.85s1.28,14.52,3.11,16.53C3402.27,106.62,3404.36,107.12,3406.5,107.12Z" transform="translate(-3360.42 -35.98)"/><line class="cls-2" x1="38.14" y1="55.28" x2="53.95" y2="55.28"/><line class="cls-2" x1="38.62" y1="59.48" x2="48.69" y2="59.48"/><line class="cls-2" x1="39.08" y1="63.72" x2="43.65" y2="63.72"/><line class="cls-2" x1="39.95" y1="67.73" x2="45.37" y2="67.73"/><path class="cls-2" d="M3403.86,107.12a2.6,2.6,0,1,0,5.2,0" transform="translate(-3360.42 -35.98)"/><path class="cls-2" d="M3404.78,91.26s0.87-22.22-2.8-20.88c-2.67,1,0,4.59,4.52,4.59s7.07-3.6,4.5-4.66c-3.75-1.55-3,20.95-3,20.95" transform="translate(-3360.42 -35.98)"/></svg>