<svg id="Layer_1" data-name="Layer 1" xmlns="http://www.w3.org/2000/svg" viewBox="0 0 84.3262 68.91666"><defs><style>.cls-1{fill:none;stroke:#2eb1b8;stroke-linecap:round;stroke-linejoin:round;stroke-width:2.21773px;}</style></defs><title>logo-ocean-and-coastal-resoruces</title><path class="cls-1" d="M7382.26765,137.51823c0,8.02123,6.12687,14.52372,13.68475,14.52372s13.68475-6.50249,13.68475-14.52372c0,8.02123,6.12687,14.52372,13.68475,14.52372s13.68475-6.50249,13.68475-14.52372c0,8.02123,6.12687,14.52372,13.68475,14.52372s13.68475-6.50249,13.68475-14.52372" transform="translate(-7381.15879 -136.40937)"/><path class="cls-1" d="M7382.26765,163.60584c0,8.02123,6.12687,14.52372,13.68475,14.52372s13.68475-6.50249,13.68475-14.52372c0,8.02123,6.12687,14.52372,13.68475,14.52372s13.68475-6.50249,13.68475-14.52372c0,8.02123,6.12687,14.52372,13.68475,14.52372s13.68475-6.50249,13.68475-14.52372" transform="translate(-7381.15879 -136.40937)"/><path class="cls-1" d="M7382.26765,189.69344c0,8.02123,6.12687,14.52372,13.68475,14.52372s13.68475-6.50249,13.68475-14.52372c0,8.02123,6.12687,14.52372,13.68475,14.52372s13.68475-6.50249,13.68475-14.52372c0,8.02123,6.12687,14.52372,13.68475,14.52372s13.68475-6.50249,13.68475-14.52372" transform="translate(-7381.15879 -136.40937)"/></svg>